<?xml version="1.0" encoding="utf-8"?>
<!-- Generator: Adobe Illustrator 19.1.0, SVG Export Plug-In . SVG Version: 6.00 Build 0)  -->
<svg version="1.1" id="Layer_1" xmlns="http://www.w3.org/2000/svg" xmlns:xlink="http://www.w3.org/1999/xlink" x="0px" y="0px"
	 width="50px" height="49.7863px" viewBox="0 0 50 49.7863" enable-background="new 0 0 50 49.7863" xml:space="preserve">
<g>
	<path fill="#E92974" d="M24.6639,24.4263c-3.4595,0-6.2739-2.7935-6.2739-6.2275s2.8145-6.2275,6.2739-6.2275
		c3.459,0,6.2734,2.7935,6.2734,6.2275S28.1229,24.4263,24.6639,24.4263z"/>
	<path fill="#FEF386" d="M24.6637,16.4711c0.978,0,1.7736,0.775,1.7736,1.7275s-0.7956,1.7275-1.7736,1.7275
		s-1.7736-0.775-1.7736-1.7275S23.6857,16.4711,24.6637,16.4711 M24.6637,7.4711c-5.9501,0-10.7736,4.8029-10.7736,10.7275
		s4.8235,10.7275,10.7736,10.7275c5.9501,0,10.7736-4.8029,10.7736-10.7275S30.6138,7.4711,24.6637,7.4711L24.6637,7.4711z"/>
</g>
<g>
	<path fill="#FCB415" d="M24.6639,24.4263c-3.4595,0-6.2739-2.7935-6.2739-6.2275s2.8145-6.2275,6.2739-6.2275
		c3.459,0,6.2734,2.7935,6.2734,6.2275S28.1229,24.4263,24.6639,24.4263z"/>
	<path fill="#1FADE4" d="M24.6637,16.4711c0.978,0,1.7736,0.775,1.7736,1.7275s-0.7956,1.7275-1.7736,1.7275
		s-1.7736-0.775-1.7736-1.7275S23.6857,16.4711,24.6637,16.4711 M24.6637,7.4711c-5.9501,0-10.7736,4.8029-10.7736,10.7275
		s4.8235,10.7275,10.7736,10.7275c5.9501,0,10.7736-4.8029,10.7736-10.7275S30.6138,7.4711,24.6637,7.4711L24.6637,7.4711z"/>
</g>
<g>
	<path fill="#095FAD" d="M24.6639,24.4263c-3.4595,0-6.2739-2.7935-6.2739-6.2275s2.8145-6.2275,6.2739-6.2275
		c3.459,0,6.2734,2.7935,6.2734,6.2275S28.1229,24.4263,24.6639,24.4263z"/>
	<path fill="#1FADE4" d="M24.6637,16.4711c0.978,0,1.7736,0.775,1.7736,1.7275s-0.7956,1.7275-1.7736,1.7275
		s-1.7736-0.775-1.7736-1.7275S23.6857,16.4711,24.6637,16.4711 M24.6637,7.4711c-5.9501,0-10.7736,4.8029-10.7736,10.7275
		s4.8235,10.7275,10.7736,10.7275c5.9501,0,10.7736-4.8029,10.7736-10.7275S30.6138,7.4711,24.6637,7.4711L24.6637,7.4711z"/>
</g>
<g>
	<path fill="#9ACF63" d="M24.6639,24.4263c-3.4595,0-6.2739-2.7935-6.2739-6.2275s2.8145-6.2275,6.2739-6.2275
		c3.459,0,6.2734,2.7935,6.2734,6.2275S28.1229,24.4263,24.6639,24.4263z"/>
	<path fill="#E92974" d="M24.6637,16.4711c0.978,0,1.7736,0.775,1.7736,1.7275s-0.7956,1.7275-1.7736,1.7275
		s-1.7736-0.775-1.7736-1.7275S23.6857,16.4711,24.6637,16.4711 M24.6637,7.4711c-5.9501,0-10.7736,4.8029-10.7736,10.7275
		s4.8235,10.7275,10.7736,10.7275c5.9501,0,10.7736-4.8029,10.7736-10.7275S30.6138,7.4711,24.6637,7.4711L24.6637,7.4711z"/>
</g>
<g>
	<path fill="#1FADE4" d="M24.6639,24.4263c-3.4595,0-6.2739-2.7935-6.2739-6.2275s2.8145-6.2275,6.2739-6.2275
		c3.459,0,6.2734,2.7935,6.2734,6.2275S28.1229,24.4263,24.6639,24.4263z"/>
	<path fill="#FCB415" d="M24.6637,16.4711c0.978,0,1.7736,0.775,1.7736,1.7275s-0.7956,1.7275-1.7736,1.7275
		s-1.7736-0.775-1.7736-1.7275S23.6857,16.4711,24.6637,16.4711 M24.6637,7.4711c-5.9501,0-10.7736,4.8029-10.7736,10.7275
		s4.8235,10.7275,10.7736,10.7275c5.9501,0,10.7736-4.8029,10.7736-10.7275S30.6138,7.4711,24.6637,7.4711L24.6637,7.4711z"/>
</g>
<g>
	<path fill="#9ACF63" d="M24.6639,24.4263c-3.4595,0-6.2739-2.7935-6.2739-6.2275s2.8145-6.2275,6.2739-6.2275
		c3.459,0,6.2734,2.7935,6.2734,6.2275S28.1229,24.4263,24.6639,24.4263z"/>
	<path fill="#FCB415" d="M24.6637,16.4711c0.978,0,1.7736,0.775,1.7736,1.7275s-0.7956,1.7275-1.7736,1.7275
		s-1.7736-0.775-1.7736-1.7275S23.6857,16.4711,24.6637,16.4711 M24.6637,7.4711c-5.9501,0-10.7736,4.8029-10.7736,10.7275
		s4.8235,10.7275,10.7736,10.7275c5.9501,0,10.7736-4.8029,10.7736-10.7275S30.6138,7.4711,24.6637,7.4711L24.6637,7.4711z"/>
</g>
<g>
	<path fill="#FDC13F" d="M24.6639,24.4263c-3.4595,0-6.2739-2.7935-6.2739-6.2275s2.8145-6.2275,6.2739-6.2275
		c3.459,0,6.2734,2.7935,6.2734,6.2275S28.1229,24.4263,24.6639,24.4263z"/>
	<path fill="#84C441" d="M24.6637,16.4711c0.978,0,1.7736,0.775,1.7736,1.7275s-0.7956,1.7275-1.7736,1.7275
		s-1.7736-0.775-1.7736-1.7275S23.6857,16.4711,24.6637,16.4711 M24.6637,7.4711c-5.9501,0-10.7736,4.8029-10.7736,10.7275
		s4.8235,10.7275,10.7736,10.7275c5.9501,0,10.7736-4.8029,10.7736-10.7275S30.6138,7.4711,24.6637,7.4711L24.6637,7.4711z"/>
</g>
<g>
	<path fill="#47BBE8" d="M24.6639,24.4263c-3.4595,0-6.2739-2.7935-6.2739-6.2275s2.8145-6.2275,6.2739-6.2275
		c3.459,0,6.2734,2.7935,6.2734,6.2275S28.1229,24.4263,24.6639,24.4263z"/>
	<path fill="#E92974" d="M24.6637,16.4711c0.978,0,1.7736,0.775,1.7736,1.7275s-0.7956,1.7275-1.7736,1.7275
		s-1.7736-0.775-1.7736-1.7275S23.6857,16.4711,24.6637,16.4711 M24.6637,7.4711c-5.9501,0-10.7736,4.8029-10.7736,10.7275
		s4.8235,10.7275,10.7736,10.7275c5.9501,0,10.7736-4.8029,10.7736-10.7275S30.6138,7.4711,24.6637,7.4711L24.6637,7.4711z"/>
</g>
<g>
	<path fill="#84C441" d="M24.6639,24.4263c-3.4595,0-6.2739-2.7935-6.2739-6.2275s2.8145-6.2275,6.2739-6.2275
		c3.459,0,6.2734,2.7935,6.2734,6.2275S28.1229,24.4263,24.6639,24.4263z"/>
	<path fill="#84C441" d="M24.6637,16.4711c0.978,0,1.7736,0.775,1.7736,1.7275s-0.7956,1.7275-1.7736,1.7275
		s-1.7736-0.775-1.7736-1.7275S23.6857,16.4711,24.6637,16.4711 M24.6637,7.4711c-5.9501,0-10.7736,4.8029-10.7736,10.7275
		s4.8235,10.7275,10.7736,10.7275c5.9501,0,10.7736-4.8029,10.7736-10.7275S30.6138,7.4711,24.6637,7.4711L24.6637,7.4711z"/>
</g>
<g>
	<path fill="#FEF59C" d="M24.6639,24.4263c-3.4595,0-6.2739-2.7935-6.2739-6.2275s2.8145-6.2275,6.2739-6.2275
		c3.459,0,6.2734,2.7935,6.2734,6.2275S28.1229,24.4263,24.6639,24.4263z"/>
	<path fill="#095FAD" d="M24.6637,16.4711c0.978,0,1.7736,0.775,1.7736,1.7275s-0.7956,1.7275-1.7736,1.7275
		s-1.7736-0.775-1.7736-1.7275S23.6857,16.4711,24.6637,16.4711 M24.6637,7.4711c-5.9501,0-10.7736,4.8029-10.7736,10.7275
		s4.8235,10.7275,10.7736,10.7275c5.9501,0,10.7736-4.8029,10.7736-10.7275S30.6138,7.4711,24.6637,7.4711L24.6637,7.4711z"/>
</g>
<ellipse fill="#84C441" stroke="#84C441" stroke-width="9" stroke-miterlimit="10" cx="24.6637" cy="18.1987" rx="8.651" ry="8.614"/>
<g display="none">
	<path display="inline" fill="#47BBE8" d="M24.6639,24.4263c-3.4595,0-6.2739-2.7935-6.2739-6.2275s2.8145-6.2275,6.2739-6.2275
		c3.459,0,6.2734,2.7935,6.2734,6.2275S28.1229,24.4263,24.6639,24.4263z"/>
	<path display="inline" fill="#095FAD" d="M24.6637,16.4711c0.978,0,1.7736,0.775,1.7736,1.7275s-0.7956,1.7275-1.7736,1.7275
		s-1.7736-0.775-1.7736-1.7275S23.6857,16.4711,24.6637,16.4711 M24.6637,7.4711c-5.9501,0-10.7736,4.8029-10.7736,10.7275
		s4.8235,10.7275,10.7736,10.7275c5.9501,0,10.7736-4.8029,10.7736-10.7275S30.6138,7.4711,24.6637,7.4711L24.6637,7.4711z"/>
</g>
<path display="none" fill="#FEF386" stroke="#FCB415" stroke-miterlimit="10" d="M23.6672,27.8233v18.4408
	c0,0.6975,0.5654,1.263,1.263,1.263h0.1399c0.6973,0,1.2626-0.5653,1.2626-1.2626V27.8233
	c6.7286-0.6991,11.9287-6.6234,11.4554-13.6341C37.354,7.7581,31.9872,2.5399,25.5471,2.2707
	c-7.3164-0.3059-13.3652,5.556-13.3652,12.8035C12.1827,21.6925,17.2237,27.1537,23.6672,27.8233z M23.2765,5.0676
	c6.9399-1.1481,12.8817,4.793,11.733,11.7309c-0.6957,4.202-4.0847,7.5909-8.2869,8.2857
	c-6.936,1.1467-12.8766-4.793-11.7314-11.7299C15.685,9.1517,19.0743,5.7628,23.2765,5.0676z"/>
<path fill="#1FADE4" d="M33.6305,18.1987c0,4.9279-4.0146,8.9259-8.9668,8.9259c-4.9529,0-8.9668-3.998-8.9668-8.9259
	c0-4.9293,4.0146-8.9259,8.9668-8.9259C29.617,9.2724,33.6305,13.269,33.6305,18.1987 M42.934,18.1987
	C42.934,8.339,34.9052,0.3465,25,0.3465c-9.9044,0-17.934,7.9925-17.934,17.8522c0,4.335,1.5538,8.3098,4.1358,11.4015
	l13.8136,19.8396l14.0156-20.129c0.5034-0.6271,0.9644-1.288,1.3804-1.9828l0.1417-0.2023h-0.0233
	C42.0562,24.4982,42.934,21.4519,42.934,18.1987"/>
</svg>
