<?xml version="1.0" encoding="utf-8"?>
<!-- Generator: Adobe Illustrator 19.1.0, SVG Export Plug-In . SVG Version: 6.00 Build 0)  -->
<svg version="1.1" id="Layer_1" xmlns="http://www.w3.org/2000/svg" xmlns:xlink="http://www.w3.org/1999/xlink" x="0px" y="0px"
	 width="50px" height="49.7863px" viewBox="0 0 50 49.7863" enable-background="new 0 0 50 49.7863" xml:space="preserve">
<g>
	<path fill="#E92974" d="M25.0002,43.1521c-10.1221,0-18.3569-8.1909-18.3569-18.2588c0-10.0684,8.2349-18.2593,18.3569-18.2593
		s18.3569,8.1909,18.3569,18.2593C43.3571,34.9612,35.1222,43.1521,25.0002,43.1521z"/>
	<path fill="#FEF386" d="M25,11.1339c7.6407,0,13.8569,6.1724,13.8569,13.7592S32.6407,38.6523,25,38.6523
		S11.1431,32.48,11.1431,24.8931S17.3593,11.1339,25,11.1339 M25,2.1339c-12.6236,0-22.8569,10.1897-22.8569,22.7592
		S12.3764,47.6523,25,47.6523c12.6235,0,22.8569-10.1897,22.8569-22.7592S37.6235,2.1339,25,2.1339L25,2.1339z"/>
</g>
<g>
	<path fill="#FCB415" d="M25.0002,43.1521c-10.1221,0-18.3569-8.1909-18.3569-18.2588c0-10.0684,8.2349-18.2593,18.3569-18.2593
		s18.3569,8.1909,18.3569,18.2593C43.3571,34.9612,35.1222,43.1521,25.0002,43.1521z"/>
	<path fill="#1FADE4" d="M25,11.1339c7.6407,0,13.8569,6.1724,13.8569,13.7592S32.6407,38.6523,25,38.6523
		S11.1431,32.48,11.1431,24.8931S17.3593,11.1339,25,11.1339 M25,2.1339c-12.6236,0-22.8569,10.1897-22.8569,22.7592
		S12.3764,47.6523,25,47.6523c12.6235,0,22.8569-10.1897,22.8569-22.7592S37.6235,2.1339,25,2.1339L25,2.1339z"/>
</g>
<g>
	<path fill="#095FAD" d="M25.0002,43.1521c-10.1221,0-18.3569-8.1909-18.3569-18.2588c0-10.0684,8.2349-18.2593,18.3569-18.2593
		s18.3569,8.1909,18.3569,18.2593C43.3571,34.9612,35.1222,43.1521,25.0002,43.1521z"/>
	<path fill="#1FADE4" d="M25,11.1339c7.6407,0,13.8569,6.1724,13.8569,13.7592S32.6407,38.6523,25,38.6523
		S11.1431,32.48,11.1431,24.8931S17.3593,11.1339,25,11.1339 M25,2.1339c-12.6236,0-22.8569,10.1897-22.8569,22.7592
		S12.3764,47.6523,25,47.6523c12.6235,0,22.8569-10.1897,22.8569-22.7592S37.6235,2.1339,25,2.1339L25,2.1339z"/>
</g>
<g>
	<path fill="#1FADE4" d="M25.0002,43.1521c-10.1221,0-18.3569-8.1909-18.3569-18.2588c0-10.0684,8.2349-18.2593,18.3569-18.2593
		s18.3569,8.1909,18.3569,18.2593C43.3571,34.9612,35.1222,43.1521,25.0002,43.1521z"/>
	<path fill="#FEF386" d="M25,11.1339c7.6407,0,13.8569,6.1724,13.8569,13.7592S32.6407,38.6523,25,38.6523
		S11.1431,32.48,11.1431,24.8931S17.3593,11.1339,25,11.1339 M25,2.1339c-12.6236,0-22.8569,10.1897-22.8569,22.7592
		S12.3764,47.6523,25,47.6523c12.6235,0,22.8569-10.1897,22.8569-22.7592S37.6235,2.1339,25,2.1339L25,2.1339z"/>
</g>
<g>
	<path fill="#1FADE4" d="M25.0002,43.1521c-10.1221,0-18.3569-8.1909-18.3569-18.2588c0-10.0684,8.2349-18.2593,18.3569-18.2593
		s18.3569,8.1909,18.3569,18.2593C43.3571,34.9612,35.1222,43.1521,25.0002,43.1521z"/>
	<path fill="#FCB415" d="M25,11.1339c7.6407,0,13.8569,6.1724,13.8569,13.7592S32.6407,38.6523,25,38.6523
		S11.1431,32.48,11.1431,24.8931S17.3593,11.1339,25,11.1339 M25,2.1339c-12.6236,0-22.8569,10.1897-22.8569,22.7592
		S12.3764,47.6523,25,47.6523c12.6235,0,22.8569-10.1897,22.8569-22.7592S37.6235,2.1339,25,2.1339L25,2.1339z"/>
</g>
<g>
	<path fill="#9ACF63" d="M25.0002,43.1521c-10.1221,0-18.3569-8.1909-18.3569-18.2588c0-10.0684,8.2349-18.2593,18.3569-18.2593
		s18.3569,8.1909,18.3569,18.2593C43.3571,34.9612,35.1222,43.1521,25.0002,43.1521z"/>
	<path fill="#FCB415" d="M25,11.1339c7.6407,0,13.8569,6.1724,13.8569,13.7592S32.6407,38.6523,25,38.6523
		S11.1431,32.48,11.1431,24.8931S17.3593,11.1339,25,11.1339 M25,2.1339c-12.6236,0-22.8569,10.1897-22.8569,22.7592
		S12.3764,47.6523,25,47.6523c12.6235,0,22.8569-10.1897,22.8569-22.7592S37.6235,2.1339,25,2.1339L25,2.1339z"/>
</g>
<g>
	<path fill="#FDC13F" d="M25.0002,43.1521c-10.1221,0-18.3569-8.1909-18.3569-18.2588c0-10.0684,8.2349-18.2593,18.3569-18.2593
		s18.3569,8.1909,18.3569,18.2593C43.3571,34.9612,35.1222,43.1521,25.0002,43.1521z"/>
	<path fill="#84C441" d="M25,11.1339c7.6407,0,13.8569,6.1724,13.8569,13.7592S32.6407,38.6523,25,38.6523
		S11.1431,32.48,11.1431,24.8931S17.3593,11.1339,25,11.1339 M25,2.1339c-12.6236,0-22.8569,10.1897-22.8569,22.7592
		S12.3764,47.6523,25,47.6523c12.6235,0,22.8569-10.1897,22.8569-22.7592S37.6235,2.1339,25,2.1339L25,2.1339z"/>
</g>
<g>
	<path fill="#47BBE8" d="M25.0002,43.1521c-10.1221,0-18.3569-8.1909-18.3569-18.2588c0-10.0684,8.2349-18.2593,18.3569-18.2593
		s18.3569,8.1909,18.3569,18.2593C43.3571,34.9612,35.1222,43.1521,25.0002,43.1521z"/>
	<path fill="#E92974" d="M25,11.1339c7.6407,0,13.8569,6.1724,13.8569,13.7592S32.6407,38.6523,25,38.6523
		S11.1431,32.48,11.1431,24.8931S17.3593,11.1339,25,11.1339 M25,2.1339c-12.6236,0-22.8569,10.1897-22.8569,22.7592
		S12.3764,47.6523,25,47.6523c12.6235,0,22.8569-10.1897,22.8569-22.7592S37.6235,2.1339,25,2.1339L25,2.1339z"/>
</g>
<g>
	<path fill="#FEF59C" d="M25.0002,43.1521c-10.1221,0-18.3569-8.1909-18.3569-18.2588c0-10.0684,8.2349-18.2593,18.3569-18.2593
		s18.3569,8.1909,18.3569,18.2593C43.3571,34.9612,35.1222,43.1521,25.0002,43.1521z"/>
	<path fill="#84C441" d="M25,11.1339c7.6407,0,13.8569,6.1724,13.8569,13.7592S32.6407,38.6523,25,38.6523
		S11.1431,32.48,11.1431,24.8931S17.3593,11.1339,25,11.1339 M25,2.1339c-12.6236,0-22.8569,10.1897-22.8569,22.7592
		S12.3764,47.6523,25,47.6523c12.6235,0,22.8569-10.1897,22.8569-22.7592S37.6235,2.1339,25,2.1339L25,2.1339z"/>
</g>
<g>
	<path fill="#FEF59C" d="M25.0002,43.1521c-10.1221,0-18.3569-8.1909-18.3569-18.2588c0-10.0684,8.2349-18.2593,18.3569-18.2593
		s18.3569,8.1909,18.3569,18.2593C43.3571,34.9612,35.1222,43.1521,25.0002,43.1521z"/>
	<path fill="#095FAD" d="M25,11.1339c7.6407,0,13.8569,6.1724,13.8569,13.7592S32.6407,38.6523,25,38.6523
		S11.1431,32.48,11.1431,24.8931S17.3593,11.1339,25,11.1339 M25,2.1339c-12.6236,0-22.8569,10.1897-22.8569,22.7592
		S12.3764,47.6523,25,47.6523c12.6235,0,22.8569-10.1897,22.8569-22.7592S37.6235,2.1339,25,2.1339L25,2.1339z"/>
</g>
<g>
	<path fill="#9ACF63" d="M25.0002,43.1521c-10.1221,0-18.3569-8.1909-18.3569-18.2588c0-10.0684,8.2349-18.2593,18.3569-18.2593
		s18.3569,8.1909,18.3569,18.2593C43.3571,34.9612,35.1222,43.1521,25.0002,43.1521z"/>
	<path fill="#E92974" d="M25,11.1339c7.6407,0,13.8569,6.1724,13.8569,13.7592S32.6407,38.6523,25,38.6523
		S11.1431,32.48,11.1431,24.8931S17.3593,11.1339,25,11.1339 M25,2.1339c-12.6236,0-22.8569,10.1897-22.8569,22.7592
		S12.3764,47.6523,25,47.6523c12.6235,0,22.8569-10.1897,22.8569-22.7592S37.6235,2.1339,25,2.1339L25,2.1339z"/>
</g>
<g display="none">
	<path display="inline" fill="#47BBE8" d="M25.0002,43.1521c-10.1221,0-18.3569-8.1909-18.3569-18.2588
		c0-10.0684,8.2349-18.2593,18.3569-18.2593s18.3569,8.1909,18.3569,18.2593C43.3571,34.9612,35.1222,43.1521,25.0002,43.1521z"/>
	<path display="inline" fill="#095FAD" d="M25,11.1339c7.6407,0,13.8569,6.1724,13.8569,13.7592S32.6407,38.6523,25,38.6523
		S11.1431,32.48,11.1431,24.8931S17.3593,11.1339,25,11.1339 M25,2.1339c-12.6236,0-22.8569,10.1897-22.8569,22.7592
		S12.3764,47.6523,25,47.6523c12.6235,0,22.8569-10.1897,22.8569-22.7592S37.6235,2.1339,25,2.1339L25,2.1339z"/>
</g>
<g display="none">
	<path display="inline" fill="#9ACF63" d="M25.0002,43.1521c-10.1221,0-18.3569-8.1909-18.3569-18.2588
		c0-10.0684,8.2349-18.2593,18.3569-18.2593s18.3569,8.1909,18.3569,18.2593C43.3571,34.9612,35.1222,43.1521,25.0002,43.1521z"/>
	<path display="inline" fill="#095FAD" d="M25,11.1339c7.6407,0,13.8569,6.1724,13.8569,13.7592S32.6407,38.6523,25,38.6523
		S11.1431,32.48,11.1431,24.8931S17.3593,11.1339,25,11.1339 M25,2.1339c-12.6236,0-22.8569,10.1897-22.8569,22.7592
		S12.3764,47.6523,25,47.6523c12.6235,0,22.8569-10.1897,22.8569-22.7592S37.6235,2.1339,25,2.1339L25,2.1339z"/>
</g>
</svg>
