<?xml version="1.0" encoding="utf-8"?>
<!-- Generator: Adobe Illustrator 19.1.0, SVG Export Plug-In . SVG Version: 6.00 Build 0)  -->
<svg version="1.1" id="Layer_1" xmlns="http://www.w3.org/2000/svg" xmlns:xlink="http://www.w3.org/1999/xlink" x="0px" y="0px"
	 width="43.1306px" height="45.4062px" viewBox="0 0 43.1306 45.4062" enable-background="new 0 0 43.1306 45.4062"
	 xml:space="preserve">
<g>
	<path fill="#E92974" d="M21.5655,35.8229c-7.9575,0-14.4312-6.437-14.4312-14.3496S13.608,7.1232,21.5655,7.1232
		c7.957,0,14.4307,6.4375,14.4307,14.3501S29.5226,35.8229,21.5655,35.8229z"/>
	<path fill="#FEF386" d="M21.5653,11.6233c5.4758,0,9.9307,4.4186,9.9307,9.8498c0,5.4312-4.4549,9.8498-9.9307,9.8498
		s-9.9307-4.4186-9.9307-9.8498C11.6346,16.0419,16.0895,11.6233,21.5653,11.6233 M21.5653,2.6233
		c-10.4552,0-18.9307,8.4394-18.9307,18.8498c0,10.4104,8.4755,18.8498,18.9307,18.8498c10.4551,0,18.9307-8.4394,18.9307-18.8498
		C40.496,11.0627,32.0204,2.6233,21.5653,2.6233L21.5653,2.6233z"/>
</g>
<g>
	<path fill="#FCB415" d="M21.5655,35.8229c-7.9575,0-14.4312-6.437-14.4312-14.3496S13.608,7.1232,21.5655,7.1232
		c7.957,0,14.4307,6.4375,14.4307,14.3501S29.5226,35.8229,21.5655,35.8229z"/>
	<path fill="#1FADE4" d="M21.5653,11.6233c5.4758,0,9.9307,4.4186,9.9307,9.8498c0,5.4312-4.4549,9.8498-9.9307,9.8498
		s-9.9307-4.4186-9.9307-9.8498C11.6346,16.0419,16.0895,11.6233,21.5653,11.6233 M21.5653,2.6233
		c-10.4552,0-18.9307,8.4394-18.9307,18.8498c0,10.4104,8.4755,18.8498,18.9307,18.8498c10.4551,0,18.9307-8.4394,18.9307-18.8498
		C40.496,11.0627,32.0204,2.6233,21.5653,2.6233L21.5653,2.6233z"/>
</g>
<g>
	<path fill="#095FAD" d="M21.5655,35.8229c-7.9575,0-14.4312-6.437-14.4312-14.3496S13.608,7.1232,21.5655,7.1232
		c7.957,0,14.4307,6.4375,14.4307,14.3501S29.5226,35.8229,21.5655,35.8229z"/>
	<path fill="#1FADE4" d="M21.5653,11.6233c5.4758,0,9.9307,4.4186,9.9307,9.8498c0,5.4312-4.4549,9.8498-9.9307,9.8498
		s-9.9307-4.4186-9.9307-9.8498C11.6346,16.0419,16.0895,11.6233,21.5653,11.6233 M21.5653,2.6233
		c-10.4552,0-18.9307,8.4394-18.9307,18.8498c0,10.4104,8.4755,18.8498,18.9307,18.8498c10.4551,0,18.9307-8.4394,18.9307-18.8498
		C40.496,11.0627,32.0204,2.6233,21.5653,2.6233L21.5653,2.6233z"/>
</g>
<g>
	<path fill="#1FADE4" d="M21.5655,35.8229c-7.9575,0-14.4312-6.437-14.4312-14.3496S13.608,7.1232,21.5655,7.1232
		c7.957,0,14.4307,6.4375,14.4307,14.3501S29.5226,35.8229,21.5655,35.8229z"/>
	<path fill="#FEF386" d="M21.5653,11.6233c5.4758,0,9.9307,4.4186,9.9307,9.8498c0,5.4312-4.4549,9.8498-9.9307,9.8498
		s-9.9307-4.4186-9.9307-9.8498C11.6346,16.0419,16.0895,11.6233,21.5653,11.6233 M21.5653,2.6233
		c-10.4552,0-18.9307,8.4394-18.9307,18.8498c0,10.4104,8.4755,18.8498,18.9307,18.8498c10.4551,0,18.9307-8.4394,18.9307-18.8498
		C40.496,11.0627,32.0204,2.6233,21.5653,2.6233L21.5653,2.6233z"/>
</g>
<g>
	<path fill="#1FADE4" d="M21.5655,35.8229c-7.9575,0-14.4312-6.437-14.4312-14.3496S13.608,7.1232,21.5655,7.1232
		c7.957,0,14.4307,6.4375,14.4307,14.3501S29.5226,35.8229,21.5655,35.8229z"/>
	<path fill="#FCB415" d="M21.5653,11.6233c5.4758,0,9.9307,4.4186,9.9307,9.8498c0,5.4312-4.4549,9.8498-9.9307,9.8498
		s-9.9307-4.4186-9.9307-9.8498C11.6346,16.0419,16.0895,11.6233,21.5653,11.6233 M21.5653,2.6233
		c-10.4552,0-18.9307,8.4394-18.9307,18.8498c0,10.4104,8.4755,18.8498,18.9307,18.8498c10.4551,0,18.9307-8.4394,18.9307-18.8498
		C40.496,11.0627,32.0204,2.6233,21.5653,2.6233L21.5653,2.6233z"/>
</g>
<g>
	<path fill="#9ACF63" d="M21.5655,35.8229c-7.9575,0-14.4312-6.437-14.4312-14.3496S13.608,7.1232,21.5655,7.1232
		c7.957,0,14.4307,6.4375,14.4307,14.3501S29.5226,35.8229,21.5655,35.8229z"/>
	<path fill="#FCB415" d="M21.5653,11.6233c5.4758,0,9.9307,4.4186,9.9307,9.8498c0,5.4312-4.4549,9.8498-9.9307,9.8498
		s-9.9307-4.4186-9.9307-9.8498C11.6346,16.0419,16.0895,11.6233,21.5653,11.6233 M21.5653,2.6233
		c-10.4552,0-18.9307,8.4394-18.9307,18.8498c0,10.4104,8.4755,18.8498,18.9307,18.8498c10.4551,0,18.9307-8.4394,18.9307-18.8498
		C40.496,11.0627,32.0204,2.6233,21.5653,2.6233L21.5653,2.6233z"/>
</g>
<g>
	<path fill="#FDC13F" d="M21.5655,35.8229c-7.9575,0-14.4312-6.437-14.4312-14.3496S13.608,7.1232,21.5655,7.1232
		c7.957,0,14.4307,6.4375,14.4307,14.3501S29.5226,35.8229,21.5655,35.8229z"/>
	<path fill="#84C441" d="M21.5653,11.6233c5.4758,0,9.9307,4.4186,9.9307,9.8498c0,5.4312-4.4549,9.8498-9.9307,9.8498
		s-9.9307-4.4186-9.9307-9.8498C11.6346,16.0419,16.0895,11.6233,21.5653,11.6233 M21.5653,2.6233
		c-10.4552,0-18.9307,8.4394-18.9307,18.8498c0,10.4104,8.4755,18.8498,18.9307,18.8498c10.4551,0,18.9307-8.4394,18.9307-18.8498
		C40.496,11.0627,32.0204,2.6233,21.5653,2.6233L21.5653,2.6233z"/>
</g>
<g>
	<path fill="#47BBE8" d="M21.5655,35.8229c-7.9575,0-14.4312-6.437-14.4312-14.3496S13.608,7.1232,21.5655,7.1232
		c7.957,0,14.4307,6.4375,14.4307,14.3501S29.5226,35.8229,21.5655,35.8229z"/>
	<path fill="#E92974" d="M21.5653,11.6233c5.4758,0,9.9307,4.4186,9.9307,9.8498c0,5.4312-4.4549,9.8498-9.9307,9.8498
		s-9.9307-4.4186-9.9307-9.8498C11.6346,16.0419,16.0895,11.6233,21.5653,11.6233 M21.5653,2.6233
		c-10.4552,0-18.9307,8.4394-18.9307,18.8498c0,10.4104,8.4755,18.8498,18.9307,18.8498c10.4551,0,18.9307-8.4394,18.9307-18.8498
		C40.496,11.0627,32.0204,2.6233,21.5653,2.6233L21.5653,2.6233z"/>
</g>
<g>
	<g>
		<path fill="#FFFFFF" d="M21.5653,9c6.9285,0,12.5653,5.5954,12.5653,12.4731s-5.6368,12.4731-12.5653,12.4731S9,28.3508,9,21.4731
			S14.6368,9,21.5653,9 M21.5653,0C9.655,0,0,9.6138,0,21.4731s9.655,21.4731,21.5653,21.4731
			c11.9101,0,21.5653-9.6139,21.5653-21.4731S33.4754,0,21.5653,0L21.5653,0z"/>
	</g>
	<g>
		<path fill="#FEF59C" d="M21.5655,35.8229c-7.9575,0-14.4312-6.437-14.4312-14.3496S13.608,7.1232,21.5655,7.1232
			c7.957,0,14.4307,6.4375,14.4307,14.3501S29.5226,35.8229,21.5655,35.8229z"/>
		<path fill="#84C441" d="M21.5653,11.6233c5.4758,0,9.9307,4.4186,9.9307,9.8498c0,5.4312-4.4549,9.8498-9.9307,9.8498
			s-9.9307-4.4186-9.9307-9.8498C11.6346,16.0419,16.0895,11.6233,21.5653,11.6233 M21.5653,2.6233
			c-10.4552,0-18.9307,8.4394-18.9307,18.8498c0,10.4104,8.4755,18.8498,18.9307,18.8498c10.4551,0,18.9307-8.4394,18.9307-18.8498
			C40.496,11.0627,32.0204,2.6233,21.5653,2.6233L21.5653,2.6233z"/>
	</g>
</g>
<g>
	<g>
		<path fill="#E92974" d="M21.5653,9c6.9285,0,12.5653,5.5954,12.5653,12.4731s-5.6368,12.4731-12.5653,12.4731S9,28.3508,9,21.4731
			S14.6368,9,21.5653,9 M21.5653,0C9.655,0,0,9.6138,0,21.4731s9.655,21.4731,21.5653,21.4731
			c11.9101,0,21.5653-9.6139,21.5653-21.4731S33.4754,0,21.5653,0L21.5653,0z"/>
	</g>
	<g>
		<path fill="#FEF59C" d="M21.5655,35.8229c-7.9575,0-14.4312-6.437-14.4312-14.3496S13.608,7.1232,21.5655,7.1232
			c7.957,0,14.4307,6.4375,14.4307,14.3501S29.5226,35.8229,21.5655,35.8229z"/>
		<path fill="#095FAD" d="M21.5653,11.6233c5.4758,0,9.9307,4.4186,9.9307,9.8498c0,5.4312-4.4549,9.8498-9.9307,9.8498
			s-9.9307-4.4186-9.9307-9.8498C11.6346,16.0419,16.0895,11.6233,21.5653,11.6233 M21.5653,2.6233
			c-10.4552,0-18.9307,8.4394-18.9307,18.8498c0,10.4104,8.4755,18.8498,18.9307,18.8498c10.4551,0,18.9307-8.4394,18.9307-18.8498
			C40.496,11.0627,32.0204,2.6233,21.5653,2.6233L21.5653,2.6233z"/>
	</g>
</g>
<g>
	<g>
		<path fill="#E92974" d="M21.5653,9c6.9285,0,12.5653,5.5954,12.5653,12.4731s-5.6368,12.4731-12.5653,12.4731S9,28.3508,9,21.4731
			S14.6368,9,21.5653,9 M21.5653,0C9.655,0,0,9.6138,0,21.4731s9.655,21.4731,21.5653,21.4731
			c11.9101,0,21.5653-9.6139,21.5653-21.4731S33.4754,0,21.5653,0L21.5653,0z"/>
	</g>
	<g>
		<path fill="#231F20" d="M21.5655,40.9064c-2.9312,0-5.4521-0.2417-7.481-0.5835c2.0288-0.3418,4.5498-0.5835,7.481-0.5835
			s5.4521,0.2417,7.481,0.5835C27.0177,40.6647,24.4967,40.9064,21.5655,40.9064z"/>
		<path fill="#77787B" d="M21.5653,35.2395c-9.3252,0-16.8846,2.2759-16.8846,5.0833s7.5594,5.0833,16.8846,5.0833
			c9.325,0,16.8846-2.2759,16.8846-5.0833S30.8904,35.2395,21.5653,35.2395L21.5653,35.2395z"/>
	</g>
	<g>
		<path fill="#231F20" d="M21.5653,9c6.9285,0,12.5653,5.5954,12.5653,12.4731s-5.6368,12.4731-12.5653,12.4731S9,28.3508,9,21.4731
			S14.6368,9,21.5653,9 M21.5653,0C9.655,0,0,9.6138,0,21.4731s9.655,21.4731,21.5653,21.4731
			c11.9101,0,21.5653-9.6139,21.5653-21.4731S33.4754,0,21.5653,0L21.5653,0z"/>
	</g>
	<g>
		<path fill="#9ACF63" d="M21.5655,35.8229c-7.9575,0-14.4312-6.437-14.4312-14.3496S13.608,7.1232,21.5655,7.1232
			c7.957,0,14.4307,6.4375,14.4307,14.3501S29.5226,35.8229,21.5655,35.8229z"/>
		<path fill="#E92974" d="M21.5653,11.6233c5.4758,0,9.9307,4.4186,9.9307,9.8498c0,5.4312-4.4549,9.8498-9.9307,9.8498
			s-9.9307-4.4186-9.9307-9.8498C11.6346,16.0419,16.0895,11.6233,21.5653,11.6233 M21.5653,2.6233
			c-10.4552,0-18.9307,8.4394-18.9307,18.8498c0,10.4104,8.4755,18.8498,18.9307,18.8498c10.4551,0,18.9307-8.4394,18.9307-18.8498
			C40.496,11.0627,32.0204,2.6233,21.5653,2.6233L21.5653,2.6233z"/>
	</g>
</g>
<g>
	<path fill="#47BBE8" d="M21.5655,35.8229c-7.9575,0-14.4312-6.437-14.4312-14.3496S13.608,7.1232,21.5655,7.1232
		c7.957,0,14.4307,6.4375,14.4307,14.3501S29.5226,35.8229,21.5655,35.8229z"/>
	<path fill="#095FAD" d="M21.5653,11.6233c5.4758,0,9.9307,4.4186,9.9307,9.8498c0,5.4312-4.4549,9.8498-9.9307,9.8498
		s-9.9307-4.4186-9.9307-9.8498C11.6346,16.0419,16.0895,11.6233,21.5653,11.6233 M21.5653,2.6233
		c-10.4552,0-18.9307,8.4394-18.9307,18.8498c0,10.4104,8.4755,18.8498,18.9307,18.8498c10.4551,0,18.9307-8.4394,18.9307-18.8498
		C40.496,11.0627,32.0204,2.6233,21.5653,2.6233L21.5653,2.6233z"/>
</g>
<g display="none">
	<g display="inline">
		<path fill="#231F20" d="M21.5655,38.4464c-2.9312,0-5.4521-0.2417-7.481-0.5835c2.0288-0.3418,4.5498-0.5835,7.481-0.5835
			s5.4521,0.2417,7.481,0.5835C27.0177,38.2047,24.4967,38.4464,21.5655,38.4464z"/>
		<path fill="#77787B" d="M21.5653,32.7795c-9.3252,0-16.8846,2.2759-16.8846,5.0833s7.5594,5.0833,16.8846,5.0833
			c9.325,0,16.8846-2.2759,16.8846-5.0833S30.8904,32.7795,21.5653,32.7795L21.5653,32.7795z"/>
	</g>
	<g display="inline">
		<path fill="#9ACF63" d="M21.5655,35.8229c-7.9575,0-14.4312-6.437-14.4312-14.3496S13.608,7.1232,21.5655,7.1232
			c7.957,0,14.4307,6.4375,14.4307,14.3501S29.5226,35.8229,21.5655,35.8229z"/>
		<path fill="#095FAD" d="M21.5653,11.6233c5.4758,0,9.9307,4.4186,9.9307,9.8498c0,5.4312-4.4549,9.8498-9.9307,9.8498
			s-9.9307-4.4186-9.9307-9.8498C11.6346,16.0419,16.0895,11.6233,21.5653,11.6233 M21.5653,2.6233
			c-10.4552,0-18.9307,8.4394-18.9307,18.8498c0,10.4104,8.4755,18.8498,18.9307,18.8498c10.4551,0,18.9307-8.4394,18.9307-18.8498
			C40.496,11.0627,32.0204,2.6233,21.5653,2.6233L21.5653,2.6233z"/>
	</g>
</g>
</svg>
