<?xml version="1.0" encoding="utf-8"?>
<!-- Generator: Adobe Illustrator 19.1.0, SVG Export Plug-In . SVG Version: 6.00 Build 0)  -->
<svg version="1.1" id="Layer_1" xmlns="http://www.w3.org/2000/svg" xmlns:xlink="http://www.w3.org/1999/xlink" x="0px" y="0px"
	 width="50px" height="49.7863px" viewBox="0 0 50 49.7863" enable-background="new 0 0 50 49.7863" xml:space="preserve">
<path fill="#84C441" stroke="#1FADE4" stroke-miterlimit="10" d="M23.6672,27.8233v18.4408c0,0.6975,0.5654,1.263,1.263,1.263
	h0.1399c0.6973,0,1.2626-0.5653,1.2626-1.2626V27.8233c6.7286-0.6991,11.9287-6.6234,11.4554-13.6341
	C37.354,7.7581,31.9872,2.5399,25.5471,2.2707c-7.3164-0.3059-13.3652,5.556-13.3652,12.8035
	C12.1827,21.6925,17.2237,27.1537,23.6672,27.8233z M23.2765,5.0676c6.9399-1.1481,12.8817,4.793,11.733,11.7309
	c-0.6957,4.202-4.0847,7.5909-8.2869,8.2857c-6.936,1.1467-12.8766-4.793-11.7314-11.7299
	C15.685,9.1517,19.0743,5.7628,23.2765,5.0676z"/>
<g>
	<path fill="#E92974" d="M25.0002,21.1038c-3.4595,0-6.2739-2.7935-6.2739-6.2275s2.8145-6.2275,6.2739-6.2275
		c3.459,0,6.2734,2.7935,6.2734,6.2275S28.4591,21.1038,25.0002,21.1038z"/>
	<path fill="#FEF386" d="M25,13.1486c0.978,0,1.7736,0.775,1.7736,1.7275S25.978,16.6036,25,16.6036s-1.7736-0.775-1.7736-1.7275
		S24.022,13.1486,25,13.1486 M25,4.1486c-5.9501,0-10.7736,4.8029-10.7736,10.7275S19.0499,25.6036,25,25.6036
		c5.9501,0,10.7736-4.8029,10.7736-10.7275S30.9501,4.1486,25,4.1486L25,4.1486z"/>
</g>
<g>
	<path fill="#FCB415" d="M25.0002,21.1038c-3.4595,0-6.2739-2.7935-6.2739-6.2275s2.8145-6.2275,6.2739-6.2275
		c3.459,0,6.2734,2.7935,6.2734,6.2275S28.4591,21.1038,25.0002,21.1038z"/>
	<path fill="#1FADE4" d="M25,13.1486c0.978,0,1.7736,0.775,1.7736,1.7275S25.978,16.6036,25,16.6036s-1.7736-0.775-1.7736-1.7275
		S24.022,13.1486,25,13.1486 M25,4.1486c-5.9501,0-10.7736,4.8029-10.7736,10.7275S19.0499,25.6036,25,25.6036
		c5.9501,0,10.7736-4.8029,10.7736-10.7275S30.9501,4.1486,25,4.1486L25,4.1486z"/>
</g>
<g>
	<path fill="#095FAD" d="M25.0002,21.1038c-3.4595,0-6.2739-2.7935-6.2739-6.2275s2.8145-6.2275,6.2739-6.2275
		c3.459,0,6.2734,2.7935,6.2734,6.2275S28.4591,21.1038,25.0002,21.1038z"/>
	<path fill="#1FADE4" d="M25,13.1486c0.978,0,1.7736,0.775,1.7736,1.7275S25.978,16.6036,25,16.6036s-1.7736-0.775-1.7736-1.7275
		S24.022,13.1486,25,13.1486 M25,4.1486c-5.9501,0-10.7736,4.8029-10.7736,10.7275S19.0499,25.6036,25,25.6036
		c5.9501,0,10.7736-4.8029,10.7736-10.7275S30.9501,4.1486,25,4.1486L25,4.1486z"/>
</g>
<g>
	<path fill="#9ACF63" d="M25.0002,21.1038c-3.4595,0-6.2739-2.7935-6.2739-6.2275s2.8145-6.2275,6.2739-6.2275
		c3.459,0,6.2734,2.7935,6.2734,6.2275S28.4591,21.1038,25.0002,21.1038z"/>
	<path fill="#E92974" d="M25,13.1486c0.978,0,1.7736,0.775,1.7736,1.7275S25.978,16.6036,25,16.6036s-1.7736-0.775-1.7736-1.7275
		S24.022,13.1486,25,13.1486 M25,4.1486c-5.9501,0-10.7736,4.8029-10.7736,10.7275S19.0499,25.6036,25,25.6036
		c5.9501,0,10.7736-4.8029,10.7736-10.7275S30.9501,4.1486,25,4.1486L25,4.1486z"/>
</g>
<g>
	<path fill="#1FADE4" d="M25.0002,21.1038c-3.4595,0-6.2739-2.7935-6.2739-6.2275s2.8145-6.2275,6.2739-6.2275
		c3.459,0,6.2734,2.7935,6.2734,6.2275S28.4591,21.1038,25.0002,21.1038z"/>
	<path fill="#FCB415" d="M25,13.1486c0.978,0,1.7736,0.775,1.7736,1.7275S25.978,16.6036,25,16.6036s-1.7736-0.775-1.7736-1.7275
		S24.022,13.1486,25,13.1486 M25,4.1486c-5.9501,0-10.7736,4.8029-10.7736,10.7275S19.0499,25.6036,25,25.6036
		c5.9501,0,10.7736-4.8029,10.7736-10.7275S30.9501,4.1486,25,4.1486L25,4.1486z"/>
</g>
<g>
	<path fill="#9ACF63" d="M25.0002,21.1038c-3.4595,0-6.2739-2.7935-6.2739-6.2275s2.8145-6.2275,6.2739-6.2275
		c3.459,0,6.2734,2.7935,6.2734,6.2275S28.4591,21.1038,25.0002,21.1038z"/>
	<path fill="#FCB415" d="M25,13.1486c0.978,0,1.7736,0.775,1.7736,1.7275S25.978,16.6036,25,16.6036s-1.7736-0.775-1.7736-1.7275
		S24.022,13.1486,25,13.1486 M25,4.1486c-5.9501,0-10.7736,4.8029-10.7736,10.7275S19.0499,25.6036,25,25.6036
		c5.9501,0,10.7736-4.8029,10.7736-10.7275S30.9501,4.1486,25,4.1486L25,4.1486z"/>
</g>
<g>
	<path fill="#FDC13F" d="M25.0002,21.1038c-3.4595,0-6.2739-2.7935-6.2739-6.2275s2.8145-6.2275,6.2739-6.2275
		c3.459,0,6.2734,2.7935,6.2734,6.2275S28.4591,21.1038,25.0002,21.1038z"/>
	<path fill="#84C441" d="M25,13.1486c0.978,0,1.7736,0.775,1.7736,1.7275S25.978,16.6036,25,16.6036s-1.7736-0.775-1.7736-1.7275
		S24.022,13.1486,25,13.1486 M25,4.1486c-5.9501,0-10.7736,4.8029-10.7736,10.7275S19.0499,25.6036,25,25.6036
		c5.9501,0,10.7736-4.8029,10.7736-10.7275S30.9501,4.1486,25,4.1486L25,4.1486z"/>
</g>
<g>
	<path fill="#47BBE8" d="M25.0002,21.1038c-3.4595,0-6.2739-2.7935-6.2739-6.2275s2.8145-6.2275,6.2739-6.2275
		c3.459,0,6.2734,2.7935,6.2734,6.2275S28.4591,21.1038,25.0002,21.1038z"/>
	<path fill="#E92974" d="M25,13.1486c0.978,0,1.7736,0.775,1.7736,1.7275S25.978,16.6036,25,16.6036s-1.7736-0.775-1.7736-1.7275
		S24.022,13.1486,25,13.1486 M25,4.1486c-5.9501,0-10.7736,4.8029-10.7736,10.7275S19.0499,25.6036,25,25.6036
		c5.9501,0,10.7736-4.8029,10.7736-10.7275S30.9501,4.1486,25,4.1486L25,4.1486z"/>
</g>
<g>
	<path fill="#FEF59C" d="M25.0002,21.1038c-3.4595,0-6.2739-2.7935-6.2739-6.2275s2.8145-6.2275,6.2739-6.2275
		c3.459,0,6.2734,2.7935,6.2734,6.2275S28.4591,21.1038,25.0002,21.1038z"/>
	<path fill="#84C441" d="M25,13.1486c0.978,0,1.7736,0.775,1.7736,1.7275S25.978,16.6036,25,16.6036s-1.7736-0.775-1.7736-1.7275
		S24.022,13.1486,25,13.1486 M25,4.1486c-5.9501,0-10.7736,4.8029-10.7736,10.7275S19.0499,25.6036,25,25.6036
		c5.9501,0,10.7736-4.8029,10.7736-10.7275S30.9501,4.1486,25,4.1486L25,4.1486z"/>
</g>
<g>
	<path fill="#FEF59C" d="M25.0002,21.1038c-3.4595,0-6.2739-2.7935-6.2739-6.2275s2.8145-6.2275,6.2739-6.2275
		c3.459,0,6.2734,2.7935,6.2734,6.2275S28.4591,21.1038,25.0002,21.1038z"/>
	<path fill="#095FAD" d="M25,13.1486c0.978,0,1.7736,0.775,1.7736,1.7275S25.978,16.6036,25,16.6036s-1.7736-0.775-1.7736-1.7275
		S24.022,13.1486,25,13.1486 M25,4.1486c-5.9501,0-10.7736,4.8029-10.7736,10.7275S19.0499,25.6036,25,25.6036
		c5.9501,0,10.7736-4.8029,10.7736-10.7275S30.9501,4.1486,25,4.1486L25,4.1486z"/>
</g>
<ellipse fill="#9ACF63" stroke="#E92974" stroke-width="9" stroke-miterlimit="10" cx="25" cy="14.8761" rx="8.651" ry="8.614"/>
<g>
	<path fill="#47BBE8" d="M25.0002,21.1038c-3.4595,0-6.2739-2.7935-6.2739-6.2275s2.8145-6.2275,6.2739-6.2275
		c3.459,0,6.2734,2.7935,6.2734,6.2275S28.4591,21.1038,25.0002,21.1038z"/>
	<path fill="#095FAD" d="M25,13.1486c0.978,0,1.7736,0.775,1.7736,1.7275S25.978,16.6036,25,16.6036s-1.7736-0.775-1.7736-1.7275
		S24.022,13.1486,25,13.1486 M25,4.1486c-5.9501,0-10.7736,4.8029-10.7736,10.7275S19.0499,25.6036,25,25.6036
		c5.9501,0,10.7736-4.8029,10.7736-10.7275S30.9501,4.1486,25,4.1486L25,4.1486z"/>
</g>
<path fill="#84C441" stroke="#1FADE4" stroke-miterlimit="10" d="M23.6672,27.8233v18.4408c0,0.6975,0.5654,1.263,1.263,1.263
	h0.1399c0.6973,0,1.2626-0.5653,1.2626-1.2626V27.8233c6.7286-0.6991,11.9287-6.6234,11.4554-13.6341
	C37.354,7.7581,31.9872,2.5399,25.5471,2.2707c-7.3164-0.3059-13.3652,5.556-13.3652,12.8035
	C12.1827,21.6925,17.2237,27.1537,23.6672,27.8233z M23.2765,5.0676c6.9399-1.1481,12.8817,4.793,11.733,11.7309
	c-0.6957,4.202-4.0847,7.5909-8.2869,8.2857c-6.936,1.1467-12.8766-4.793-11.7314-11.7299
	C15.685,9.1517,19.0743,5.7628,23.2765,5.0676z"/>
<path display="none" fill="#84C441" stroke="#1FADE4" stroke-miterlimit="10" d="M23.6672,27.8233v18.4408
	c0,0.6975,0.5654,1.263,1.263,1.263h0.1399c0.6973,0,1.2626-0.5653,1.2626-1.2626V27.8233
	c6.7286-0.6991,11.9287-6.6234,11.4554-13.6341C37.354,7.7581,31.9872,2.5399,25.5471,2.2707
	c-7.3164-0.3059-13.3652,5.556-13.3652,12.8035C12.1827,21.6925,17.2237,27.1537,23.6672,27.8233z M23.2765,5.0676
	c6.9399-1.1481,12.8817,4.793,11.733,11.7309c-0.6957,4.202-4.0847,7.5909-8.2869,8.2857
	c-6.936,1.1467-12.8766-4.793-11.7314-11.7299C15.685,9.1517,19.0743,5.7628,23.2765,5.0676z"/>
<path display="none" fill="#84C441" stroke="#1FADE4" stroke-miterlimit="10" d="M23.6672,27.8233v18.4408
	c0,0.6975,0.5654,1.263,1.263,1.263h0.1399c0.6973,0,1.2626-0.5653,1.2626-1.2626V27.8233
	c6.7286-0.6991,11.9287-6.6234,11.4554-13.6341C37.354,7.7581,31.9872,2.5399,25.5471,2.2707
	c-7.3164-0.3059-13.3652,5.556-13.3652,12.8035C12.1827,21.6925,17.2237,27.1537,23.6672,27.8233z M23.2765,5.0676
	c6.9399-1.1481,12.8817,4.793,11.733,11.7309c-0.6957,4.202-4.0847,7.5909-8.2869,8.2857
	c-6.936,1.1467-12.8766-4.793-11.7314-11.7299C15.685,9.1517,19.0743,5.7628,23.2765,5.0676z"/>
<path display="none" fill="#84C441" stroke="#1FADE4" stroke-miterlimit="10" d="M23.6672,27.8233v18.4408
	c0,0.6975,0.5654,1.263,1.263,1.263h0.1399c0.6973,0,1.2626-0.5653,1.2626-1.2626V27.8233
	c6.7286-0.6991,11.9287-6.6234,11.4554-13.6341C37.354,7.7581,31.9872,2.5399,25.5471,2.2707
	c-7.3164-0.3059-13.3652,5.556-13.3652,12.8035C12.1827,21.6925,17.2237,27.1537,23.6672,27.8233z M23.2765,5.0676
	c6.9399-1.1481,12.8817,4.793,11.733,11.7309c-0.6957,4.202-4.0847,7.5909-8.2869,8.2857
	c-6.936,1.1467-12.8766-4.793-11.7314-11.7299C15.685,9.1517,19.0743,5.7628,23.2765,5.0676z"/>
<path display="none" fill="#84C441" stroke="#1FADE4" stroke-miterlimit="10" d="M23.6672,27.8233v18.4408
	c0,0.6975,0.5654,1.263,1.263,1.263h0.1399c0.6973,0,1.2626-0.5653,1.2626-1.2626V27.8233
	c6.7286-0.6991,11.9287-6.6234,11.4554-13.6341C37.354,7.7581,31.9872,2.5399,25.5471,2.2707
	c-7.3164-0.3059-13.3652,5.556-13.3652,12.8035C12.1827,21.6925,17.2237,27.1537,23.6672,27.8233z M23.2765,5.0676
	c6.9399-1.1481,12.8817,4.793,11.733,11.7309c-0.6957,4.202-4.0847,7.5909-8.2869,8.2857
	c-6.936,1.1467-12.8766-4.793-11.7314-11.7299C15.685,9.1517,19.0743,5.7628,23.2765,5.0676z"/>
<path display="none" fill="#84C441" stroke="#1FADE4" stroke-miterlimit="10" d="M23.6672,27.8233v18.4408
	c0,0.6975,0.5654,1.263,1.263,1.263h0.1399c0.6973,0,1.2626-0.5653,1.2626-1.2626V27.8233
	c6.7286-0.6991,11.9287-6.6234,11.4554-13.6341C37.354,7.7581,31.9872,2.5399,25.5471,2.2707
	c-7.3164-0.3059-13.3652,5.556-13.3652,12.8035C12.1827,21.6925,17.2237,27.1537,23.6672,27.8233z M23.2765,5.0676
	c6.9399-1.1481,12.8817,4.793,11.733,11.7309c-0.6957,4.202-4.0847,7.5909-8.2869,8.2857
	c-6.936,1.1467-12.8766-4.793-11.7314-11.7299C15.685,9.1517,19.0743,5.7628,23.2765,5.0676z"/>
</svg>
