<?xml version="1.0" encoding="utf-8"?>
<!-- Generator: Adobe Illustrator 19.1.0, SVG Export Plug-In . SVG Version: 6.00 Build 0)  -->
<svg version="1.1" id="Layer_1" xmlns="http://www.w3.org/2000/svg" xmlns:xlink="http://www.w3.org/1999/xlink" x="0px" y="0px"
	 width="37.8614px" height="40.3229px" viewBox="0 0 37.8614 40.3229" enable-background="new 0 0 37.8614 40.3229"
	 xml:space="preserve">
<g>
	<g>
		<path fill="#231F20" d="M18.9306,35.8229c-2.9312,0-5.4521-0.2422-7.481-0.583c2.0288-0.3418,4.5498-0.584,7.481-0.584
			s5.4517,0.2422,7.481,0.584C24.3823,35.5807,21.8618,35.8229,18.9306,35.8229z"/>
		<path fill="#77787B" d="M18.9307,30.1562c-9.3251,0-16.8846,2.2759-16.8846,5.0833s7.5594,5.0833,16.8846,5.0833
			c9.3251,0,16.8846-2.2759,16.8846-5.0833S28.2558,30.1562,18.9307,30.1562L18.9307,30.1562z"/>
	</g>
	<g>
		<path fill="#9ACF63" d="M18.9306,33.1998c-7.957,0-14.4307-6.4375-14.4307-14.3501S10.9736,4.5001,18.9306,4.5001
			c7.9575,0,14.4312,6.437,14.4312,14.3496S26.8881,33.1998,18.9306,33.1998z"/>
		<path fill="#095FAD" d="M18.9307,9c5.4758,0,9.9307,4.4186,9.9307,9.8498s-4.4549,9.8498-9.9307,9.8498
			C13.4549,28.6996,9,24.281,9,18.8498S13.4549,9,18.9307,9 M18.9307,0C8.4755,0,0,8.4394,0,18.8498
			c0,10.4104,8.4755,18.8498,18.9307,18.8498c10.4551,0,18.9307-8.4394,18.9307-18.8498C37.8614,8.4394,29.3858,0,18.9307,0
			L18.9307,0z"/>
	</g>
</g>
</svg>
