<?xml version="1.0" encoding="utf-8"?>
<!-- Generator: Adobe Illustrator 19.1.0, SVG Export Plug-In . SVG Version: 6.00 Build 0)  -->
<svg version="1.1" id="Layer_1" xmlns="http://www.w3.org/2000/svg" xmlns:xlink="http://www.w3.org/1999/xlink" x="0px" y="0px"
	 width="41px" height="40.8247px" viewBox="0 0 41 40.8247" enable-background="new 0 0 41 40.8247" xml:space="preserve">
<rect x="-1.0653" y="-2.4445" display="none" fill="#84C441" width="43.1306" height="46.79"/>
<g display="none">
	<path display="inline" fill="#231F20" d="M20.4998,38.8457c-2.5186,0-4.5942-0.25-6.209-0.5835
		c1.6147-0.3335,3.6904-0.5835,6.209-0.5835s4.5942,0.25,6.2095,0.5835C25.094,38.5957,23.0183,38.8457,20.4998,38.8457z"/>
	<path display="inline" fill="#77787B" d="M20.5,33.1788c-7.8931,0-14.2916,2.2759-14.2916,5.0833s6.3985,5.0833,14.2916,5.0833
		c7.893,0,14.2916-2.2759,14.2916-5.0833S28.393,33.1788,20.5,33.1788L20.5,33.1788z"/>
</g>
<g>
	<path fill="#FFFFFF" d="M20.5,9C26.8411,9,32,14.1196,32,20.4124c0,6.2928-5.1589,11.4124-11.5,11.4124S9,26.7052,9,20.4124
		C9,14.1196,14.1589,9,20.5,9 M20.5,0C9.1781,0,0,9.139,0,20.4124c0,11.2734,9.1781,20.4124,20.5,20.4124
		c11.3218,0,20.5-9.139,20.5-20.4124C41,9.139,31.8218,0,20.5,0L20.5,0z"/>
</g>
<g>
	<path fill="#E92974" d="M20.5002,34.7622c-7.9575,0-14.4312-6.437-14.4312-14.3496S12.5427,6.0625,20.5002,6.0625
		c7.957,0,14.4307,6.4375,14.4307,14.3501S28.4573,34.7622,20.5002,34.7622z"/>
	<path fill="#FEF386" d="M20.5,10.5626c5.4758,0,9.9307,4.4186,9.9307,9.8498c0,5.4312-4.4549,9.8498-9.9307,9.8498
		s-9.9307-4.4186-9.9307-9.8498C10.5693,14.9812,15.0242,10.5626,20.5,10.5626 M20.5,1.5626
		c-10.4552,0-18.9307,8.4394-18.9307,18.8498c0,10.4104,8.4755,18.8498,18.9307,18.8498c10.4551,0,18.9307-8.4394,18.9307-18.8498
		C39.4307,10.002,30.9551,1.5626,20.5,1.5626L20.5,1.5626z"/>
</g>
<g>
	<path fill="#FCB415" d="M20.5002,34.7622c-7.9575,0-14.4312-6.437-14.4312-14.3496S12.5427,6.0625,20.5002,6.0625
		c7.957,0,14.4307,6.4375,14.4307,14.3501S28.4573,34.7622,20.5002,34.7622z"/>
	<path fill="#1FADE4" d="M20.5,10.5626c5.4758,0,9.9307,4.4186,9.9307,9.8498c0,5.4312-4.4549,9.8498-9.9307,9.8498
		s-9.9307-4.4186-9.9307-9.8498C10.5693,14.9812,15.0242,10.5626,20.5,10.5626 M20.5,1.5626
		c-10.4552,0-18.9307,8.4394-18.9307,18.8498c0,10.4104,8.4755,18.8498,18.9307,18.8498c10.4551,0,18.9307-8.4394,18.9307-18.8498
		C39.4307,10.002,30.9551,1.5626,20.5,1.5626L20.5,1.5626z"/>
</g>
<g>
	<path fill="#095FAD" d="M20.5002,34.7622c-7.9575,0-14.4312-6.437-14.4312-14.3496S12.5427,6.0625,20.5002,6.0625
		c7.957,0,14.4307,6.4375,14.4307,14.3501S28.4573,34.7622,20.5002,34.7622z"/>
	<path fill="#1FADE4" d="M20.5,10.5626c5.4758,0,9.9307,4.4186,9.9307,9.8498c0,5.4312-4.4549,9.8498-9.9307,9.8498
		s-9.9307-4.4186-9.9307-9.8498C10.5693,14.9812,15.0242,10.5626,20.5,10.5626 M20.5,1.5626
		c-10.4552,0-18.9307,8.4394-18.9307,18.8498c0,10.4104,8.4755,18.8498,18.9307,18.8498c10.4551,0,18.9307-8.4394,18.9307-18.8498
		C39.4307,10.002,30.9551,1.5626,20.5,1.5626L20.5,1.5626z"/>
</g>
<g>
	<path fill="#1FADE4" d="M20.5002,34.7622c-7.9575,0-14.4312-6.437-14.4312-14.3496S12.5427,6.0625,20.5002,6.0625
		c7.957,0,14.4307,6.4375,14.4307,14.3501S28.4573,34.7622,20.5002,34.7622z"/>
	<path fill="#FEF386" d="M20.5,10.5626c5.4758,0,9.9307,4.4186,9.9307,9.8498c0,5.4312-4.4549,9.8498-9.9307,9.8498
		s-9.9307-4.4186-9.9307-9.8498C10.5693,14.9812,15.0242,10.5626,20.5,10.5626 M20.5,1.5626
		c-10.4552,0-18.9307,8.4394-18.9307,18.8498c0,10.4104,8.4755,18.8498,18.9307,18.8498c10.4551,0,18.9307-8.4394,18.9307-18.8498
		C39.4307,10.002,30.9551,1.5626,20.5,1.5626L20.5,1.5626z"/>
</g>
<g>
	<path fill="#1FADE4" d="M20.5002,34.7622c-7.9575,0-14.4312-6.437-14.4312-14.3496S12.5427,6.0625,20.5002,6.0625
		c7.957,0,14.4307,6.4375,14.4307,14.3501S28.4573,34.7622,20.5002,34.7622z"/>
	<path fill="#FCB415" d="M20.5,10.5626c5.4758,0,9.9307,4.4186,9.9307,9.8498c0,5.4312-4.4549,9.8498-9.9307,9.8498
		s-9.9307-4.4186-9.9307-9.8498C10.5693,14.9812,15.0242,10.5626,20.5,10.5626 M20.5,1.5626
		c-10.4552,0-18.9307,8.4394-18.9307,18.8498c0,10.4104,8.4755,18.8498,18.9307,18.8498c10.4551,0,18.9307-8.4394,18.9307-18.8498
		C39.4307,10.002,30.9551,1.5626,20.5,1.5626L20.5,1.5626z"/>
</g>
<g>
	<path fill="#9ACF63" d="M20.5002,34.7622c-7.9575,0-14.4312-6.437-14.4312-14.3496S12.5427,6.0625,20.5002,6.0625
		c7.957,0,14.4307,6.4375,14.4307,14.3501S28.4573,34.7622,20.5002,34.7622z"/>
	<path fill="#FCB415" d="M20.5,10.5626c5.4758,0,9.9307,4.4186,9.9307,9.8498c0,5.4312-4.4549,9.8498-9.9307,9.8498
		s-9.9307-4.4186-9.9307-9.8498C10.5693,14.9812,15.0242,10.5626,20.5,10.5626 M20.5,1.5626
		c-10.4552,0-18.9307,8.4394-18.9307,18.8498c0,10.4104,8.4755,18.8498,18.9307,18.8498c10.4551,0,18.9307-8.4394,18.9307-18.8498
		C39.4307,10.002,30.9551,1.5626,20.5,1.5626L20.5,1.5626z"/>
</g>
<g>
	<path fill="#FDC13F" d="M20.5002,34.7622c-7.9575,0-14.4312-6.437-14.4312-14.3496S12.5427,6.0625,20.5002,6.0625
		c7.957,0,14.4307,6.4375,14.4307,14.3501S28.4573,34.7622,20.5002,34.7622z"/>
	<path fill="#84C441" d="M20.5,10.5626c5.4758,0,9.9307,4.4186,9.9307,9.8498c0,5.4312-4.4549,9.8498-9.9307,9.8498
		s-9.9307-4.4186-9.9307-9.8498C10.5693,14.9812,15.0242,10.5626,20.5,10.5626 M20.5,1.5626
		c-10.4552,0-18.9307,8.4394-18.9307,18.8498c0,10.4104,8.4755,18.8498,18.9307,18.8498c10.4551,0,18.9307-8.4394,18.9307-18.8498
		C39.4307,10.002,30.9551,1.5626,20.5,1.5626L20.5,1.5626z"/>
</g>
<g>
	<path fill="#47BBE8" d="M20.5002,34.7622c-7.9575,0-14.4312-6.437-14.4312-14.3496S12.5427,6.0625,20.5002,6.0625
		c7.957,0,14.4307,6.4375,14.4307,14.3501S28.4573,34.7622,20.5002,34.7622z"/>
	<path fill="#E92974" d="M20.5,10.5626c5.4758,0,9.9307,4.4186,9.9307,9.8498c0,5.4312-4.4549,9.8498-9.9307,9.8498
		s-9.9307-4.4186-9.9307-9.8498C10.5693,14.9812,15.0242,10.5626,20.5,10.5626 M20.5,1.5626
		c-10.4552,0-18.9307,8.4394-18.9307,18.8498c0,10.4104,8.4755,18.8498,18.9307,18.8498c10.4551,0,18.9307-8.4394,18.9307-18.8498
		C39.4307,10.002,30.9551,1.5626,20.5,1.5626L20.5,1.5626z"/>
</g>
<g>
	<path fill="#FEF59C" d="M20.4998,34.7622c-7.957,0-14.4307-6.437-14.4307-14.3496S12.5427,6.0625,20.4998,6.0625
		c7.9575,0,14.4312,6.4375,14.4312,14.3501S28.4573,34.7622,20.4998,34.7622z"/>
	<path fill="#84C441" d="M20.5,10.5626c5.4758,0,9.9307,4.4186,9.9307,9.8498c0,5.4312-4.4549,9.8498-9.9307,9.8498
		c-5.4758,0-9.9307-4.4186-9.9307-9.8498C10.5693,14.9811,15.0242,10.5626,20.5,10.5626 M20.5,1.5626
		c-10.4552,0-18.9307,8.4394-18.9307,18.8498c0,10.4104,8.4755,18.8498,18.9307,18.8498c10.4551,0,18.9307-8.4394,18.9307-18.8498
		C39.4307,10.002,30.9551,1.5626,20.5,1.5626L20.5,1.5626z"/>
</g>
<g display="none">
	<path display="inline" fill="#FEF59C" d="M20.5002,34.7622c-7.9575,0-14.4312-6.437-14.4312-14.3496S12.5427,6.0625,20.5002,6.0625
		c7.957,0,14.4307,6.4375,14.4307,14.3501S28.4573,34.7622,20.5002,34.7622z"/>
	<path display="inline" fill="#095FAD" d="M20.5,10.5626c5.4758,0,9.9307,4.4186,9.9307,9.8498
		c0,5.4312-4.4549,9.8498-9.9307,9.8498s-9.9307-4.4186-9.9307-9.8498C10.5693,14.9812,15.0242,10.5626,20.5,10.5626 M20.5,1.5626
		c-10.4552,0-18.9307,8.4394-18.9307,18.8498c0,10.4104,8.4755,18.8498,18.9307,18.8498c10.4551,0,18.9307-8.4394,18.9307-18.8498
		C39.4307,10.002,30.9551,1.5626,20.5,1.5626L20.5,1.5626z"/>
</g>
<g display="none">
	<path display="inline" fill="#9ACF63" d="M20.4998,34.7622c-7.957,0-14.4307-6.437-14.4307-14.3496S12.5427,6.0625,20.4998,6.0625
		c7.9575,0,14.4312,6.4375,14.4312,14.3501S28.4573,34.7622,20.4998,34.7622z"/>
	<path display="inline" fill="#E92974" d="M20.5,10.5626c5.4758,0,9.9307,4.4186,9.9307,9.8498
		c0,5.4312-4.4549,9.8498-9.9307,9.8498c-5.4758,0-9.9307-4.4186-9.9307-9.8498C10.5693,14.9811,15.0242,10.5626,20.5,10.5626
		 M20.5,1.5626c-10.4552,0-18.9307,8.4394-18.9307,18.8498c0,10.4104,8.4755,18.8498,18.9307,18.8498
		c10.4551,0,18.9307-8.4394,18.9307-18.8498C39.4307,10.002,30.9551,1.5626,20.5,1.5626L20.5,1.5626z"/>
</g>
<g display="none">
	<path display="inline" fill="#47BBE8" d="M20.5002,34.7622c-7.9575,0-14.4312-6.437-14.4312-14.3496S12.5427,6.0625,20.5002,6.0625
		c7.957,0,14.4307,6.4375,14.4307,14.3501S28.4573,34.7622,20.5002,34.7622z"/>
	<path display="inline" fill="#095FAD" d="M20.5,10.5626c5.4758,0,9.9307,4.4186,9.9307,9.8498
		c0,5.4312-4.4549,9.8498-9.9307,9.8498s-9.9307-4.4186-9.9307-9.8498C10.5693,14.9812,15.0242,10.5626,20.5,10.5626 M20.5,1.5626
		c-10.4552,0-18.9307,8.4394-18.9307,18.8498c0,10.4104,8.4755,18.8498,18.9307,18.8498c10.4551,0,18.9307-8.4394,18.9307-18.8498
		C39.4307,10.002,30.9551,1.5626,20.5,1.5626L20.5,1.5626z"/>
</g>
<g display="none">
	<path display="inline" fill="#9ACF63" d="M20.5002,34.7622c-7.9575,0-14.4312-6.437-14.4312-14.3496S12.5427,6.0625,20.5002,6.0625
		c7.957,0,14.4307,6.4375,14.4307,14.3501S28.4573,34.7622,20.5002,34.7622z"/>
	<path display="inline" fill="#095FAD" d="M20.5,10.5626c5.4758,0,9.9307,4.4186,9.9307,9.8498
		c0,5.4312-4.4549,9.8498-9.9307,9.8498s-9.9307-4.4186-9.9307-9.8498C10.5693,14.9812,15.0242,10.5626,20.5,10.5626 M20.5,1.5626
		c-10.4552,0-18.9307,8.4394-18.9307,18.8498c0,10.4104,8.4755,18.8498,18.9307,18.8498c10.4551,0,18.9307-8.4394,18.9307-18.8498
		C39.4307,10.002,30.9551,1.5626,20.5,1.5626L20.5,1.5626z"/>
</g>
</svg>
