<?xml version="1.0" encoding="utf-8"?>
<!-- Generator: Adobe Illustrator 19.1.0, SVG Export Plug-In . SVG Version: 6.00 Build 0)  -->
<svg version="1.1" id="Layer_1" xmlns="http://www.w3.org/2000/svg" xmlns:xlink="http://www.w3.org/1999/xlink" x="0px" y="0px"
	 width="54.0329px" height="68.3073px" viewBox="0 0 54.0329 68.3073" enable-background="new 0 0 54.0329 68.3073"
	 xml:space="preserve">
<ellipse display="none" fill="#59535D" stroke="#59535D" stroke-width="3" stroke-miterlimit="10" cx="27" cy="63.3919" rx="13.375" ry="3.4154"/>
<g>
	<path fill="#FFFFFF" d="M27,10c4.8402,0,9.6233,2.1123,13.1229,5.7953c3.3885,3.5662,5.1248,8.0723,4.8889,12.6882
		c-0.4041,7.9064-7.4016,14.1114-14.8101,20.6807c-1.0688,0.9477-2.1489,1.9055-3.2153,2.8774
		c-0.1019-0.0853-0.205-0.1716-0.3088-0.2585C20.499,46.6116,8.9985,36.9856,9,28.9446C9.002,18.6756,17.2449,10,27,10 M27,1
		C12.0882,1,0.0029,13.8517,0,28.9429c-0.0033,17.2324,25.6608,31.6945,26.8979,35.5883c0.024,0.0756,0.092,0.1109,0.1658,0.1109
		c0.0686,0,0.1421-0.0305,0.1898-0.0876C35.6092,54.5582,53.1608,45.3629,54,28.9429C54.7704,13.8705,41.9116,1,27,1L27,1z"/>
</g>
<g display="none">
	<path display="inline" fill="#9ACF63" d="M19.3379,46.9592l-0.7544-0.3389C11.2431,43.3259,6.5,36.0271,6.5,28.0266
		C6.5,16.782,15.6962,7.6335,27,7.6335s20.5,9.1484,20.5,20.3931c0,8.0005-4.7432,15.2988-12.0835,18.5933l-0.7544,0.3389
		L27,54.6208L19.3379,46.9592z"/>
	<path display="inline" fill="#095FAD" d="M27,12.1334C35.8224,12.1334,43,19.263,43,28.0265c0,6.2311-3.6999,11.9181-9.426,14.4882
		l-1.509,0.6773l-1.1696,1.1696L27,48.257l-3.8953-3.8953l-1.1696-1.1696l-1.5091-0.6773C14.6999,39.9447,11,34.2578,11,28.0265
		C11,19.263,18.1775,12.1334,27,12.1334 M27,3.1334C13.1928,3.1334,2,14.2784,2,28.0265c0,10.1061,6.0518,18.7993,14.7407,22.6992
		L27,60.9849l10.2594-10.2593C45.9482,46.8256,52,38.1325,52,28.0265C52,14.2784,40.807,3.1334,27,3.1334L27,3.1334z"/>
	<path display="inline" fill="none" stroke="#27222B" stroke-width="2" stroke-miterlimit="10" d="M27,3.1334
		C13.1928,3.1334,2,14.2784,2,28.0265c0,10.1061,6.0518,18.7993,14.7407,22.6992L27,60.9849l10.2593-10.2593
		C45.9482,46.8256,52,38.1325,52,28.0265C52,14.2784,40.807,3.1334,27,3.1334z"/>
</g>
<g>
	
		<rect x="14.6667" y="31.1489" transform="matrix(0.7071 0.7071 -0.7071 0.7071 38.6547 -6.3562)" fill="#E92974" stroke="#FEF386" stroke-width="3" stroke-miterlimit="10" width="24.6667" height="24.6667"/>
	<g>
		
			<path fill="#E92974" stroke="#FEF386" stroke-width="5" stroke-linecap="round" stroke-linejoin="round" stroke-miterlimit="10" d="
			M9.0236,40.4823"/>
		<g>
			<path fill="#E92974" d="M27,48.3591c-11.3037,0-20.5-9.1484-20.5-20.3936C6.5,16.7209,15.6962,7.5725,27,7.5725
				s20.5,9.1484,20.5,20.3931C47.5,39.2107,38.3037,48.3591,27,48.3591z"/>
			<path fill="#FEF386" d="M27,12.0727c8.8224,0,16,7.1296,16,15.8931c0,8.7635-7.1776,15.8931-16,15.8931s-16-7.1296-16-15.8931
				C11,19.2023,18.1776,12.0727,27,12.0727 M27,3.0727c-13.8072,0-25,11.1451-25,24.8931s11.1928,24.8931,25,24.8931
				c13.8071,0,25-11.1451,25-24.8931S40.8071,3.0727,27,3.0727L27,3.0727z"/>
		</g>
	</g>
</g>
<g>
	
		<rect x="14.6667" y="31.1489" transform="matrix(0.7071 0.7071 -0.7071 0.7071 38.6547 -6.3562)" fill="#FCB415" stroke="#1FADE4" stroke-width="3" stroke-miterlimit="10" width="24.6667" height="24.6667"/>
	<g>
		
			<path fill="#FCB415" stroke="#1FADE4" stroke-width="5" stroke-linecap="round" stroke-linejoin="round" stroke-miterlimit="10" d="
			M9.0236,40.4823"/>
		<g>
			<path fill="#FCB415" d="M27,48.3591c-11.3037,0-20.5-9.1484-20.5-20.3936C6.5,16.7209,15.6962,7.5725,27,7.5725
				s20.5,9.1484,20.5,20.3931C47.5,39.2107,38.3037,48.3591,27,48.3591z"/>
			<path fill="#1FADE4" d="M27,12.0727c8.8224,0,16,7.1296,16,15.8931c0,8.7635-7.1776,15.8931-16,15.8931s-16-7.1296-16-15.8931
				C11,19.2023,18.1776,12.0727,27,12.0727 M27,3.0727c-13.8072,0-25,11.1451-25,24.8931s11.1928,24.8931,25,24.8931
				c13.8071,0,25-11.1451,25-24.8931S40.8071,3.0727,27,3.0727L27,3.0727z"/>
		</g>
	</g>
</g>
<g>
	
		<rect x="14.6667" y="31.1489" transform="matrix(0.7071 0.7071 -0.7071 0.7071 38.6547 -6.3562)" fill="#095FAD" stroke="#1FADE4" stroke-width="3" stroke-miterlimit="10" width="24.6667" height="24.6667"/>
	<g>
		
			<path fill="#095FAD" stroke="#1FADE4" stroke-width="5" stroke-linecap="round" stroke-linejoin="round" stroke-miterlimit="10" d="
			M9.0236,40.4823"/>
		<g>
			<path fill="#095FAD" d="M27,48.3591c-11.3037,0-20.5-9.1484-20.5-20.3936C6.5,16.7209,15.6962,7.5725,27,7.5725
				s20.5,9.1484,20.5,20.3931C47.5,39.2107,38.3037,48.3591,27,48.3591z"/>
			<path fill="#1FADE4" d="M27,12.0727c8.8224,0,16,7.1296,16,15.8931c0,8.7635-7.1776,15.8931-16,15.8931s-16-7.1296-16-15.8931
				C11,19.2023,18.1776,12.0727,27,12.0727 M27,3.0727c-13.8072,0-25,11.1451-25,24.8931s11.1928,24.8931,25,24.8931
				c13.8071,0,25-11.1451,25-24.8931S40.8071,3.0727,27,3.0727L27,3.0727z"/>
		</g>
	</g>
</g>
<g>
	
		<rect x="14.6667" y="31.1489" transform="matrix(0.7071 0.7071 -0.7071 0.7071 38.6547 -6.3562)" fill="#1FADE4" stroke="#FEF386" stroke-width="3" stroke-miterlimit="10" width="24.6667" height="24.6667"/>
	<g>
		
			<path fill="#1FADE4" stroke="#FEF386" stroke-width="5" stroke-linecap="round" stroke-linejoin="round" stroke-miterlimit="10" d="
			M9.0236,40.4823"/>
		<g>
			<path fill="#1FADE4" d="M27,48.3591c-11.3037,0-20.5-9.1484-20.5-20.3936C6.5,16.7209,15.6962,7.5725,27,7.5725
				s20.5,9.1484,20.5,20.3931C47.5,39.2107,38.3037,48.3591,27,48.3591z"/>
			<path fill="#FEF386" d="M27,12.0727c8.8224,0,16,7.1296,16,15.8931c0,8.7635-7.1776,15.8931-16,15.8931s-16-7.1296-16-15.8931
				C11,19.2023,18.1776,12.0727,27,12.0727 M27,3.0727c-13.8072,0-25,11.1451-25,24.8931s11.1928,24.8931,25,24.8931
				c13.8071,0,25-11.1451,25-24.8931S40.8071,3.0727,27,3.0727L27,3.0727z"/>
		</g>
	</g>
</g>
<g>
	
		<rect x="14.6667" y="31.1489" transform="matrix(0.7071 0.7071 -0.7071 0.7071 38.6547 -6.3562)" fill="#1FADE4" stroke="#FCB415" stroke-width="3" stroke-miterlimit="10" width="24.6667" height="24.6667"/>
	<g>
		
			<path fill="#1FADE4" stroke="#FCB415" stroke-width="5" stroke-linecap="round" stroke-linejoin="round" stroke-miterlimit="10" d="
			M9.0236,40.4823"/>
		<g>
			<path fill="#1FADE4" d="M27,48.3591c-11.3037,0-20.5-9.1484-20.5-20.3936C6.5,16.7209,15.6962,7.5725,27,7.5725
				s20.5,9.1484,20.5,20.3931C47.5,39.2107,38.3037,48.3591,27,48.3591z"/>
			<path fill="#FCB415" d="M27,12.0727c8.8224,0,16,7.1296,16,15.8931c0,8.7635-7.1776,15.8931-16,15.8931s-16-7.1296-16-15.8931
				C11,19.2023,18.1776,12.0727,27,12.0727 M27,3.0727c-13.8072,0-25,11.1451-25,24.8931s11.1928,24.8931,25,24.8931
				c13.8071,0,25-11.1451,25-24.8931S40.8071,3.0727,27,3.0727L27,3.0727z"/>
		</g>
	</g>
</g>
<g>
	
		<rect x="14.6667" y="31.1489" transform="matrix(0.7071 0.7071 -0.7071 0.7071 38.6547 -6.3562)" fill="#9ACF63" stroke="#FCB415" stroke-width="3" stroke-miterlimit="10" width="24.6667" height="24.6667"/>
	<g>
		
			<path fill="#FEF386" stroke="#FCB415" stroke-width="5" stroke-linecap="round" stroke-linejoin="round" stroke-miterlimit="10" d="
			M9.0236,40.4823"/>
		<g>
			<path fill="#9ACF63" d="M27,48.3591c-11.3037,0-20.5-9.1484-20.5-20.3936C6.5,16.7209,15.6962,7.5725,27,7.5725
				s20.5,9.1484,20.5,20.3931C47.5,39.2107,38.3037,48.3591,27,48.3591z"/>
			<path fill="#FCB415" d="M27,12.0727c8.8224,0,16,7.1296,16,15.8931c0,8.7635-7.1776,15.8931-16,15.8931s-16-7.1296-16-15.8931
				C11,19.2023,18.1776,12.0727,27,12.0727 M27,3.0727c-13.8072,0-25,11.1451-25,24.8931s11.1928,24.8931,25,24.8931
				c13.8071,0,25-11.1451,25-24.8931S40.8071,3.0727,27,3.0727L27,3.0727z"/>
		</g>
	</g>
</g>
<g>
	
		<rect x="14.6667" y="31.1489" transform="matrix(0.7071 0.7071 -0.7071 0.7071 38.6547 -6.3562)" fill="#FDC13F" stroke="#84C441" stroke-width="3" stroke-miterlimit="10" width="24.6667" height="24.6667"/>
	<g>
		
			<path fill="#FCB415" stroke="#84C441" stroke-width="5" stroke-linecap="round" stroke-linejoin="round" stroke-miterlimit="10" d="
			M9.0236,40.4823"/>
		<g>
			<path fill="#FDC13F" d="M27,48.3591c-11.3037,0-20.5-9.1484-20.5-20.3936C6.5,16.7209,15.6962,7.5725,27,7.5725
				s20.5,9.1484,20.5,20.3931C47.5,39.2107,38.3037,48.3591,27,48.3591z"/>
			<path fill="#84C441" d="M27,12.0727c8.8224,0,16,7.1296,16,15.8931c0,8.7635-7.1776,15.8931-16,15.8931s-16-7.1296-16-15.8931
				C11,19.2023,18.1776,12.0727,27,12.0727 M27,3.0727c-13.8072,0-25,11.1451-25,24.8931s11.1928,24.8931,25,24.8931
				c13.8071,0,25-11.1451,25-24.8931S40.8071,3.0727,27,3.0727L27,3.0727z"/>
		</g>
	</g>
</g>
<g>
	
		<rect x="14.6667" y="31.1489" transform="matrix(0.7071 0.7071 -0.7071 0.7071 38.6547 -6.3562)" fill="#47BBE8" stroke="#E92974" stroke-width="3" stroke-miterlimit="10" width="24.6667" height="24.6667"/>
	<g>
		
			<path fill="#1FADE4" stroke="#E92974" stroke-width="5" stroke-linecap="round" stroke-linejoin="round" stroke-miterlimit="10" d="
			M9.0236,40.4823"/>
		<g>
			<path fill="#47BBE8" d="M27,48.3591c-11.3037,0-20.5-9.1484-20.5-20.3936C6.5,16.7209,15.6962,7.5725,27,7.5725
				s20.5,9.1484,20.5,20.3931C47.5,39.2107,38.3037,48.3591,27,48.3591z"/>
			<path fill="#E92974" d="M27,12.0727c8.8224,0,16,7.1296,16,15.8931c0,8.7635-7.1776,15.8931-16,15.8931s-16-7.1296-16-15.8931
				C11,19.2023,18.1776,12.0727,27,12.0727 M27,3.0727c-13.8072,0-25,11.1451-25,24.8931s11.1928,24.8931,25,24.8931
				c13.8071,0,25-11.1451,25-24.8931S40.8071,3.0727,27,3.0727L27,3.0727z"/>
		</g>
	</g>
</g>
<g>
	
		<rect x="14.6667" y="31.1489" transform="matrix(0.7071 0.7071 -0.7071 0.7071 38.6547 -6.3562)" fill="#FEF59C" stroke="#84C441" stroke-width="3" stroke-miterlimit="10" width="24.6667" height="24.6667"/>
	<g>
		
			<path fill="#FEF386" stroke="#84C441" stroke-width="5" stroke-linecap="round" stroke-linejoin="round" stroke-miterlimit="10" d="
			M9.0236,40.4823"/>
		<g>
			<path fill="#FEF59C" d="M27,48.3591c-11.3037,0-20.5-9.1484-20.5-20.3936C6.5,16.7209,15.6962,7.5725,27,7.5725
				s20.5,9.1484,20.5,20.3931C47.5,39.2107,38.3037,48.3591,27,48.3591z"/>
			<path fill="#84C441" d="M27,12.0727c8.8224,0,16,7.1296,16,15.8931c0,8.7635-7.1776,15.8931-16,15.8931s-16-7.1296-16-15.8931
				C11,19.2023,18.1776,12.0727,27,12.0727 M27,3.0727c-13.8072,0-25,11.1451-25,24.8931s11.1928,24.8931,25,24.8931
				c13.8071,0,25-11.1451,25-24.8931S40.8071,3.0727,27,3.0727L27,3.0727z"/>
		</g>
	</g>
</g>
<g>
	
		<rect x="14.6667" y="31.1489" transform="matrix(0.7071 0.7071 -0.7071 0.7071 38.6547 -6.3562)" fill="#FEF59C" stroke="#095FAD" stroke-width="3" stroke-miterlimit="10" width="24.6667" height="24.6667"/>
	<g>
		
			<path fill="#FEF386" stroke="#095FAD" stroke-width="5" stroke-linecap="round" stroke-linejoin="round" stroke-miterlimit="10" d="
			M9.0236,40.4823"/>
		<g>
			<path fill="#FEF59C" d="M27,48.3591c-11.3037,0-20.5-9.1484-20.5-20.3936C6.5,16.7209,15.6962,7.5725,27,7.5725
				s20.5,9.1484,20.5,20.3931C47.5,39.2107,38.3037,48.3591,27,48.3591z"/>
			<path fill="#095FAD" d="M27,12.0727c8.8224,0,16,7.1296,16,15.8931c0,8.7635-7.1776,15.8931-16,15.8931s-16-7.1296-16-15.8931
				C11,19.2023,18.1776,12.0727,27,12.0727 M27,3.0727c-13.8072,0-25,11.1451-25,24.8931s11.1928,24.8931,25,24.8931
				c13.8071,0,25-11.1451,25-24.8931S40.8071,3.0727,27,3.0727L27,3.0727z"/>
		</g>
	</g>
</g>
<g>
	
		<rect x="14.6667" y="31.1489" transform="matrix(0.7071 0.7071 -0.7071 0.7071 38.6547 -6.3562)" fill="#9ACF63" stroke="#E92974" stroke-width="3" stroke-miterlimit="10" width="24.6667" height="24.6667"/>
	<g>
		
			<path fill="#FEF386" stroke="#E92974" stroke-width="5" stroke-linecap="round" stroke-linejoin="round" stroke-miterlimit="10" d="
			M9.0236,40.4823"/>
		<g>
			<path fill="#9ACF63" d="M27,48.3591c-11.3037,0-20.5-9.1484-20.5-20.3936C6.5,16.7209,15.6962,7.5725,27,7.5725
				s20.5,9.1484,20.5,20.3931C47.5,39.2107,38.3037,48.3591,27,48.3591z"/>
			<path fill="#E92974" d="M27,12.0727c8.8224,0,16,7.1296,16,15.8931c0,8.7635-7.1776,15.8931-16,15.8931s-16-7.1296-16-15.8931
				C11,19.2023,18.1776,12.0727,27,12.0727 M27,3.0727c-13.8072,0-25,11.1451-25,24.8931s11.1928,24.8931,25,24.8931
				c13.8071,0,25-11.1451,25-24.8931S40.8071,3.0727,27,3.0727L27,3.0727z"/>
		</g>
	</g>
</g>
<g display="none">
	<g display="inline">
		
			<rect x="14.6667" y="31.1489" transform="matrix(0.7071 0.7071 -0.7071 0.7071 38.6547 -6.3562)" fill="#47BBE8" stroke="#095FAD" stroke-width="3" stroke-miterlimit="10" width="24.6667" height="24.6667"/>
		<g>
			
				<path fill="#1FADE4" stroke="#095FAD" stroke-width="5" stroke-linecap="round" stroke-linejoin="round" stroke-miterlimit="10" d="
				M9.0236,40.4823"/>
			<g>
				<path fill="#47BBE8" d="M27,48.3591c-11.3037,0-20.5-9.1484-20.5-20.3936C6.5,16.7209,15.6962,7.5725,27,7.5725
					s20.5,9.1484,20.5,20.3931C47.5,39.2107,38.3037,48.3591,27,48.3591z"/>
				<path fill="#095FAD" d="M27,12.0727c8.8224,0,16,7.1296,16,15.8931c0,8.7635-7.1776,15.8931-16,15.8931s-16-7.1296-16-15.8931
					C11,19.2023,18.1776,12.0727,27,12.0727 M27,3.0727c-13.8072,0-25,11.1451-25,24.8931s11.1928,24.8931,25,24.8931
					c13.8071,0,25-11.1451,25-24.8931S40.8071,3.0727,27,3.0727L27,3.0727z"/>
			</g>
		</g>
	</g>
</g>
</svg>
