<?xml version="1.0" encoding="utf-8"?>
<!-- Generator: Adobe Illustrator 19.1.0, SVG Export Plug-In . SVG Version: 6.00 Build 0)  -->
<svg version="1.1" id="Layer_1" xmlns="http://www.w3.org/2000/svg" xmlns:xlink="http://www.w3.org/1999/xlink" x="0px" y="0px"
	 viewBox="0 0 50 49.8" style="enable-background:new 0 0 50 49.8;" xml:space="preserve">
<style type="text/css">
	.st0{fill:#E92974;}
	.st1{fill:#FEF386;}
	.st2{fill:#FCB415;}
	.st3{fill:#1FADE4;}
	.st4{fill:#095FAD;}
	.st5{fill:#9ACF63;}
	.st6{fill:#FDC13F;}
	.st7{fill:#84C441;}
	.st8{fill:#47BBE8;}
	.st9{display:none;}
	.st10{display:inline;fill:#FEF59C;}
	.st11{display:inline;fill:#84C441;}
	.st12{display:inline;fill:#095FAD;}
	.st13{display:inline;fill:#9ACF63;}
	.st14{display:inline;fill:#E92974;}
	.st15{display:inline;fill:#47BBE8;}
</style>
<g>
	<path class="st0" d="M25,43.2C14.9,43.2,6.6,35,6.6,24.9C6.6,14.8,14.9,6.6,25,6.6s18.4,8.2,18.4,18.3C43.4,35,35.1,43.2,25,43.2z"
		/>
	<path class="st1" d="M25,11.1c7.6,0,13.9,6.2,13.9,13.8S32.6,38.7,25,38.7s-13.9-6.2-13.9-13.8S17.4,11.1,25,11.1 M25,2.1
		C12.4,2.1,2.1,12.3,2.1,24.9S12.4,47.7,25,47.7c12.6,0,22.9-10.2,22.9-22.8S37.6,2.1,25,2.1L25,2.1z"/>
</g>
<g>
	<path class="st2" d="M25,43.2C14.9,43.2,6.6,35,6.6,24.9C6.6,14.8,14.9,6.6,25,6.6s18.4,8.2,18.4,18.3C43.4,35,35.1,43.2,25,43.2z"
		/>
	<path class="st3" d="M25,11.1c7.6,0,13.9,6.2,13.9,13.8S32.6,38.7,25,38.7s-13.9-6.2-13.9-13.8S17.4,11.1,25,11.1 M25,2.1
		C12.4,2.1,2.1,12.3,2.1,24.9S12.4,47.7,25,47.7c12.6,0,22.9-10.2,22.9-22.8S37.6,2.1,25,2.1L25,2.1z"/>
</g>
<g>
	<path class="st4" d="M25,43.2C14.9,43.2,6.6,35,6.6,24.9C6.6,14.8,14.9,6.6,25,6.6s18.4,8.2,18.4,18.3C43.4,35,35.1,43.2,25,43.2z"
		/>
	<path class="st3" d="M25,11.1c7.6,0,13.9,6.2,13.9,13.8S32.6,38.7,25,38.7s-13.9-6.2-13.9-13.8S17.4,11.1,25,11.1 M25,2.1
		C12.4,2.1,2.1,12.3,2.1,24.9S12.4,47.7,25,47.7c12.6,0,22.9-10.2,22.9-22.8S37.6,2.1,25,2.1L25,2.1z"/>
</g>
<g>
	<path class="st3" d="M25,43.2C14.9,43.2,6.6,35,6.6,24.9C6.6,14.8,14.9,6.6,25,6.6s18.4,8.2,18.4,18.3C43.4,35,35.1,43.2,25,43.2z"
		/>
	<path class="st1" d="M25,11.1c7.6,0,13.9,6.2,13.9,13.8S32.6,38.7,25,38.7s-13.9-6.2-13.9-13.8S17.4,11.1,25,11.1 M25,2.1
		C12.4,2.1,2.1,12.3,2.1,24.9S12.4,47.7,25,47.7c12.6,0,22.9-10.2,22.9-22.8S37.6,2.1,25,2.1L25,2.1z"/>
</g>
<g>
	<path class="st3" d="M25,43.2C14.9,43.2,6.6,35,6.6,24.9C6.6,14.8,14.9,6.6,25,6.6s18.4,8.2,18.4,18.3C43.4,35,35.1,43.2,25,43.2z"
		/>
	<path class="st2" d="M25,11.1c7.6,0,13.9,6.2,13.9,13.8S32.6,38.7,25,38.7s-13.9-6.2-13.9-13.8S17.4,11.1,25,11.1 M25,2.1
		C12.4,2.1,2.1,12.3,2.1,24.9S12.4,47.7,25,47.7c12.6,0,22.9-10.2,22.9-22.8S37.6,2.1,25,2.1L25,2.1z"/>
</g>
<g>
	<path class="st5" d="M25,43.2C14.9,43.2,6.6,35,6.6,24.9C6.6,14.8,14.9,6.6,25,6.6s18.4,8.2,18.4,18.3C43.4,35,35.1,43.2,25,43.2z"
		/>
	<path class="st2" d="M25,11.1c7.6,0,13.9,6.2,13.9,13.8S32.6,38.7,25,38.7s-13.9-6.2-13.9-13.8S17.4,11.1,25,11.1 M25,2.1
		C12.4,2.1,2.1,12.3,2.1,24.9S12.4,47.7,25,47.7c12.6,0,22.9-10.2,22.9-22.8S37.6,2.1,25,2.1L25,2.1z"/>
</g>
<g>
	<path class="st6" d="M25,43.2C14.9,43.2,6.6,35,6.6,24.9C6.6,14.8,14.9,6.6,25,6.6s18.4,8.2,18.4,18.3C43.4,35,35.1,43.2,25,43.2z"
		/>
	<path class="st7" d="M25,11.1c7.6,0,13.9,6.2,13.9,13.8S32.6,38.7,25,38.7s-13.9-6.2-13.9-13.8S17.4,11.1,25,11.1 M25,2.1
		C12.4,2.1,2.1,12.3,2.1,24.9S12.4,47.7,25,47.7c12.6,0,22.9-10.2,22.9-22.8S37.6,2.1,25,2.1L25,2.1z"/>
</g>
<g>
	<path class="st8" d="M25,43.2C14.9,43.2,6.6,35,6.6,24.9C6.6,14.8,14.9,6.6,25,6.6s18.4,8.2,18.4,18.3C43.4,35,35.1,43.2,25,43.2z"
		/>
	<path class="st0" d="M25,11.1c7.6,0,13.9,6.2,13.9,13.8S32.6,38.7,25,38.7s-13.9-6.2-13.9-13.8S17.4,11.1,25,11.1 M25,2.1
		C12.4,2.1,2.1,12.3,2.1,24.9S12.4,47.7,25,47.7c12.6,0,22.9-10.2,22.9-22.8S37.6,2.1,25,2.1L25,2.1z"/>
</g>
<g class="st9">
	<path class="st10" d="M25,43.2C14.9,43.2,6.6,35,6.6,24.9C6.6,14.8,14.9,6.6,25,6.6s18.4,8.2,18.4,18.3C43.4,35,35.1,43.2,25,43.2z
		"/>
	<path class="st11" d="M25,11.1c7.6,0,13.9,6.2,13.9,13.8S32.6,38.7,25,38.7s-13.9-6.2-13.9-13.8S17.4,11.1,25,11.1 M25,2.1
		C12.4,2.1,2.1,12.3,2.1,24.9S12.4,47.7,25,47.7c12.6,0,22.9-10.2,22.9-22.8S37.6,2.1,25,2.1L25,2.1z"/>
</g>
<g class="st9">
	<path class="st10" d="M25,43.2C14.9,43.2,6.6,35,6.6,24.9C6.6,14.8,14.9,6.6,25,6.6s18.4,8.2,18.4,18.3C43.4,35,35.1,43.2,25,43.2z
		"/>
	<path class="st12" d="M25,11.1c7.6,0,13.9,6.2,13.9,13.8S32.6,38.7,25,38.7s-13.9-6.2-13.9-13.8S17.4,11.1,25,11.1 M25,2.1
		C12.4,2.1,2.1,12.3,2.1,24.9S12.4,47.7,25,47.7c12.6,0,22.9-10.2,22.9-22.8S37.6,2.1,25,2.1L25,2.1z"/>
</g>
<g class="st9">
	<path class="st13" d="M25,43.2C14.9,43.2,6.6,35,6.6,24.9C6.6,14.8,14.9,6.6,25,6.6s18.4,8.2,18.4,18.3C43.4,35,35.1,43.2,25,43.2z
		"/>
	<path class="st14" d="M25,11.1c7.6,0,13.9,6.2,13.9,13.8S32.6,38.7,25,38.7s-13.9-6.2-13.9-13.8S17.4,11.1,25,11.1 M25,2.1
		C12.4,2.1,2.1,12.3,2.1,24.9S12.4,47.7,25,47.7c12.6,0,22.9-10.2,22.9-22.8S37.6,2.1,25,2.1L25,2.1z"/>
</g>
<g class="st9">
	<path class="st15" d="M25,43.2C14.9,43.2,6.6,35,6.6,24.9C6.6,14.8,14.9,6.6,25,6.6s18.4,8.2,18.4,18.3C43.4,35,35.1,43.2,25,43.2z
		"/>
	<path class="st12" d="M25,11.1c7.6,0,13.9,6.2,13.9,13.8S32.6,38.7,25,38.7s-13.9-6.2-13.9-13.8S17.4,11.1,25,11.1 M25,2.1
		C12.4,2.1,2.1,12.3,2.1,24.9S12.4,47.7,25,47.7c12.6,0,22.9-10.2,22.9-22.8S37.6,2.1,25,2.1L25,2.1z"/>
</g>
<g class="st9">
	<path class="st13" d="M25,43.2C14.9,43.2,6.6,35,6.6,24.9C6.6,14.8,14.9,6.6,25,6.6s18.4,8.2,18.4,18.3C43.4,35,35.1,43.2,25,43.2z
		"/>
	<path class="st12" d="M25,11.1c7.6,0,13.9,6.2,13.9,13.8S32.6,38.7,25,38.7s-13.9-6.2-13.9-13.8S17.4,11.1,25,11.1 M25,2.1
		C12.4,2.1,2.1,12.3,2.1,24.9S12.4,47.7,25,47.7c12.6,0,22.9-10.2,22.9-22.8S37.6,2.1,25,2.1L25,2.1z"/>
</g>
</svg>
