<?xml version="1.0" encoding="utf-8"?>
<!-- Generator: Adobe Illustrator 19.1.0, SVG Export Plug-In . SVG Version: 6.00 Build 0)  -->
<svg version="1.1" id="Layer_1" xmlns="http://www.w3.org/2000/svg" xmlns:xlink="http://www.w3.org/1999/xlink" x="0px" y="0px"
	 width="43.1306px" height="45.4062px" viewBox="0 0 43.1306 45.4062" enable-background="new 0 0 43.1306 45.4062"
	 xml:space="preserve">
<rect y="-1.3838" display="none" fill="#84C441" width="43.1306" height="46.79"/>
<g>
	<path fill="#231F20" d="M21.5651,39.9064c-2.5186,0-4.5942-0.25-6.209-0.5835c1.6147-0.3335,3.6904-0.5835,6.209-0.5835
		s4.5942,0.25,6.2095,0.5835C26.1593,39.6564,24.0836,39.9064,21.5651,39.9064z"/>
	<path fill="#77787B" d="M21.5653,34.2395c-7.8931,0-14.2916,2.2759-14.2916,5.0833s6.3985,5.0833,14.2916,5.0833
		c7.893,0,14.2916-2.2759,14.2916-5.0833S29.4583,34.2395,21.5653,34.2395L21.5653,34.2395z"/>
</g>
<g>
	<path fill="#FFFFFF" d="M21.5653,10.2682c6.2262,0,11.2916,5.0265,11.2916,11.2048c0,6.1784-5.0654,11.2049-11.2916,11.2049
		c-6.2262,0-11.2916-5.0265-11.2916-11.2049C10.2737,15.2947,15.3391,10.2682,21.5653,10.2682 M21.5653,1.2682
		c-11.2068,0-20.2916,9.0461-20.2916,20.2048c0,11.1588,9.0848,20.2049,20.2916,20.2049c11.2067,0,20.2916-9.0461,20.2916-20.2049
		C41.8569,10.3143,32.772,1.2682,21.5653,1.2682L21.5653,1.2682z"/>
</g>
<g>
	<path fill="#E92974" d="M21.5655,35.8229c-7.9575,0-14.4312-6.437-14.4312-14.3496S13.608,7.1232,21.5655,7.1232
		c7.957,0,14.4307,6.4375,14.4307,14.3501S29.5226,35.8229,21.5655,35.8229z"/>
	<path fill="#FEF386" d="M21.5653,11.6233c5.4758,0,9.9307,4.4186,9.9307,9.8498c0,5.4312-4.4549,9.8498-9.9307,9.8498
		s-9.9307-4.4186-9.9307-9.8498C11.6346,16.0419,16.0895,11.6233,21.5653,11.6233 M21.5653,2.6233
		c-10.4552,0-18.9307,8.4394-18.9307,18.8498c0,10.4104,8.4755,18.8498,18.9307,18.8498c10.4551,0,18.9307-8.4394,18.9307-18.8498
		C40.496,11.0627,32.0204,2.6233,21.5653,2.6233L21.5653,2.6233z"/>
</g>
<g>
	<path fill="#FCB415" d="M21.5655,35.8229c-7.9575,0-14.4312-6.437-14.4312-14.3496S13.608,7.1232,21.5655,7.1232
		c7.957,0,14.4307,6.4375,14.4307,14.3501S29.5226,35.8229,21.5655,35.8229z"/>
	<path fill="#1FADE4" d="M21.5653,11.6233c5.4758,0,9.9307,4.4186,9.9307,9.8498c0,5.4312-4.4549,9.8498-9.9307,9.8498
		s-9.9307-4.4186-9.9307-9.8498C11.6346,16.0419,16.0895,11.6233,21.5653,11.6233 M21.5653,2.6233
		c-10.4552,0-18.9307,8.4394-18.9307,18.8498c0,10.4104,8.4755,18.8498,18.9307,18.8498c10.4551,0,18.9307-8.4394,18.9307-18.8498
		C40.496,11.0627,32.0204,2.6233,21.5653,2.6233L21.5653,2.6233z"/>
</g>
<g>
	<path fill="#095FAD" d="M21.5655,35.8229c-7.9575,0-14.4312-6.437-14.4312-14.3496S13.608,7.1232,21.5655,7.1232
		c7.957,0,14.4307,6.4375,14.4307,14.3501S29.5226,35.8229,21.5655,35.8229z"/>
	<path fill="#1FADE4" d="M21.5653,11.6233c5.4758,0,9.9307,4.4186,9.9307,9.8498c0,5.4312-4.4549,9.8498-9.9307,9.8498
		s-9.9307-4.4186-9.9307-9.8498C11.6346,16.0419,16.0895,11.6233,21.5653,11.6233 M21.5653,2.6233
		c-10.4552,0-18.9307,8.4394-18.9307,18.8498c0,10.4104,8.4755,18.8498,18.9307,18.8498c10.4551,0,18.9307-8.4394,18.9307-18.8498
		C40.496,11.0627,32.0204,2.6233,21.5653,2.6233L21.5653,2.6233z"/>
</g>
<g display="none">
	<path display="inline" fill="#1FADE4" d="M21.5655,35.8229c-7.9575,0-14.4312-6.437-14.4312-14.3496S13.608,7.1232,21.5655,7.1232
		c7.957,0,14.4307,6.4375,14.4307,14.3501S29.5226,35.8229,21.5655,35.8229z"/>
	<path display="inline" fill="#FEF386" d="M21.5653,11.6233c5.4758,0,9.9307,4.4186,9.9307,9.8498
		c0,5.4312-4.4549,9.8498-9.9307,9.8498s-9.9307-4.4186-9.9307-9.8498C11.6346,16.0419,16.0895,11.6233,21.5653,11.6233
		 M21.5653,2.6233c-10.4552,0-18.9307,8.4394-18.9307,18.8498c0,10.4104,8.4755,18.8498,18.9307,18.8498
		c10.4551,0,18.9307-8.4394,18.9307-18.8498C40.496,11.0627,32.0204,2.6233,21.5653,2.6233L21.5653,2.6233z"/>
</g>
<g display="none">
	<path display="inline" fill="#1FADE4" d="M21.5655,35.8229c-7.9575,0-14.4312-6.437-14.4312-14.3496S13.608,7.1232,21.5655,7.1232
		c7.957,0,14.4307,6.4375,14.4307,14.3501S29.5226,35.8229,21.5655,35.8229z"/>
	<path display="inline" fill="#FCB415" d="M21.5653,11.6233c5.4758,0,9.9307,4.4186,9.9307,9.8498
		c0,5.4312-4.4549,9.8498-9.9307,9.8498s-9.9307-4.4186-9.9307-9.8498C11.6346,16.0419,16.0895,11.6233,21.5653,11.6233
		 M21.5653,2.6233c-10.4552,0-18.9307,8.4394-18.9307,18.8498c0,10.4104,8.4755,18.8498,18.9307,18.8498
		c10.4551,0,18.9307-8.4394,18.9307-18.8498C40.496,11.0627,32.0204,2.6233,21.5653,2.6233L21.5653,2.6233z"/>
</g>
<g display="none">
	<path display="inline" fill="#9ACF63" d="M21.5655,35.8229c-7.9575,0-14.4312-6.437-14.4312-14.3496S13.608,7.1232,21.5655,7.1232
		c7.957,0,14.4307,6.4375,14.4307,14.3501S29.5226,35.8229,21.5655,35.8229z"/>
	<path display="inline" fill="#FCB415" d="M21.5653,11.6233c5.4758,0,9.9307,4.4186,9.9307,9.8498
		c0,5.4312-4.4549,9.8498-9.9307,9.8498s-9.9307-4.4186-9.9307-9.8498C11.6346,16.0419,16.0895,11.6233,21.5653,11.6233
		 M21.5653,2.6233c-10.4552,0-18.9307,8.4394-18.9307,18.8498c0,10.4104,8.4755,18.8498,18.9307,18.8498
		c10.4551,0,18.9307-8.4394,18.9307-18.8498C40.496,11.0627,32.0204,2.6233,21.5653,2.6233L21.5653,2.6233z"/>
</g>
<g display="none">
	<path display="inline" fill="#FDC13F" d="M21.5655,35.8229c-7.9575,0-14.4312-6.437-14.4312-14.3496S13.608,7.1232,21.5655,7.1232
		c7.957,0,14.4307,6.4375,14.4307,14.3501S29.5226,35.8229,21.5655,35.8229z"/>
	<path display="inline" fill="#84C441" d="M21.5653,11.6233c5.4758,0,9.9307,4.4186,9.9307,9.8498
		c0,5.4312-4.4549,9.8498-9.9307,9.8498s-9.9307-4.4186-9.9307-9.8498C11.6346,16.0419,16.0895,11.6233,21.5653,11.6233
		 M21.5653,2.6233c-10.4552,0-18.9307,8.4394-18.9307,18.8498c0,10.4104,8.4755,18.8498,18.9307,18.8498
		c10.4551,0,18.9307-8.4394,18.9307-18.8498C40.496,11.0627,32.0204,2.6233,21.5653,2.6233L21.5653,2.6233z"/>
</g>
<g display="none">
	<path display="inline" fill="#47BBE8" d="M21.5655,35.8229c-7.9575,0-14.4312-6.437-14.4312-14.3496S13.608,7.1232,21.5655,7.1232
		c7.957,0,14.4307,6.4375,14.4307,14.3501S29.5226,35.8229,21.5655,35.8229z"/>
	<path display="inline" fill="#E92974" d="M21.5653,11.6233c5.4758,0,9.9307,4.4186,9.9307,9.8498
		c0,5.4312-4.4549,9.8498-9.9307,9.8498s-9.9307-4.4186-9.9307-9.8498C11.6346,16.0419,16.0895,11.6233,21.5653,11.6233
		 M21.5653,2.6233c-10.4552,0-18.9307,8.4394-18.9307,18.8498c0,10.4104,8.4755,18.8498,18.9307,18.8498
		c10.4551,0,18.9307-8.4394,18.9307-18.8498C40.496,11.0627,32.0204,2.6233,21.5653,2.6233L21.5653,2.6233z"/>
</g>
<g display="none">
	<path display="inline" fill="#FEF59C" d="M21.5651,35.8229c-7.957,0-14.4307-6.437-14.4307-14.3496S13.608,7.1232,21.5651,7.1232
		c7.9575,0,14.4312,6.4375,14.4312,14.3501S29.5226,35.8229,21.5651,35.8229z"/>
	<path display="inline" fill="#84C441" d="M21.5653,11.6233c5.4758,0,9.9307,4.4186,9.9307,9.8498
		c0,5.4312-4.4549,9.8498-9.9307,9.8498c-5.4758,0-9.9307-4.4186-9.9307-9.8498C11.6346,16.0419,16.0895,11.6233,21.5653,11.6233
		 M21.5653,2.6233c-10.4552,0-18.9307,8.4394-18.9307,18.8498c0,10.4104,8.4755,18.8498,18.9307,18.8498
		c10.4551,0,18.9307-8.4394,18.9307-18.8498C40.496,11.0627,32.0204,2.6233,21.5653,2.6233L21.5653,2.6233z"/>
</g>
<g display="none">
	<path display="inline" fill="#FEF59C" d="M21.5655,35.8229c-7.9575,0-14.4312-6.437-14.4312-14.3496S13.608,7.1232,21.5655,7.1232
		c7.957,0,14.4307,6.4375,14.4307,14.3501S29.5226,35.8229,21.5655,35.8229z"/>
	<path display="inline" fill="#095FAD" d="M21.5653,11.6233c5.4758,0,9.9307,4.4186,9.9307,9.8498
		c0,5.4312-4.4549,9.8498-9.9307,9.8498s-9.9307-4.4186-9.9307-9.8498C11.6346,16.0419,16.0895,11.6233,21.5653,11.6233
		 M21.5653,2.6233c-10.4552,0-18.9307,8.4394-18.9307,18.8498c0,10.4104,8.4755,18.8498,18.9307,18.8498
		c10.4551,0,18.9307-8.4394,18.9307-18.8498C40.496,11.0627,32.0204,2.6233,21.5653,2.6233L21.5653,2.6233z"/>
</g>
<g display="none">
	<path display="inline" fill="#9ACF63" d="M21.5651,35.8229c-7.957,0-14.4307-6.437-14.4307-14.3496S13.608,7.1232,21.5651,7.1232
		c7.9575,0,14.4312,6.4375,14.4312,14.3501S29.5226,35.8229,21.5651,35.8229z"/>
	<path display="inline" fill="#E92974" d="M21.5653,11.6233c5.4758,0,9.9307,4.4186,9.9307,9.8498
		c0,5.4312-4.4549,9.8498-9.9307,9.8498c-5.4758,0-9.9307-4.4186-9.9307-9.8498C11.6346,16.0419,16.0895,11.6233,21.5653,11.6233
		 M21.5653,2.6233c-10.4552,0-18.9307,8.4394-18.9307,18.8498c0,10.4104,8.4755,18.8498,18.9307,18.8498
		c10.4551,0,18.9307-8.4394,18.9307-18.8498C40.496,11.0627,32.0204,2.6233,21.5653,2.6233L21.5653,2.6233z"/>
</g>
<g display="none">
	<path display="inline" fill="#47BBE8" d="M21.5655,35.8229c-7.9575,0-14.4312-6.437-14.4312-14.3496S13.608,7.1232,21.5655,7.1232
		c7.957,0,14.4307,6.4375,14.4307,14.3501S29.5226,35.8229,21.5655,35.8229z"/>
	<path display="inline" fill="#095FAD" d="M21.5653,11.6233c5.4758,0,9.9307,4.4186,9.9307,9.8498
		c0,5.4312-4.4549,9.8498-9.9307,9.8498s-9.9307-4.4186-9.9307-9.8498C11.6346,16.0419,16.0895,11.6233,21.5653,11.6233
		 M21.5653,2.6233c-10.4552,0-18.9307,8.4394-18.9307,18.8498c0,10.4104,8.4755,18.8498,18.9307,18.8498
		c10.4551,0,18.9307-8.4394,18.9307-18.8498C40.496,11.0627,32.0204,2.6233,21.5653,2.6233L21.5653,2.6233z"/>
</g>
<g display="none">
	<path display="inline" fill="#9ACF63" d="M21.5655,35.8229c-7.9575,0-14.4312-6.437-14.4312-14.3496S13.608,7.1232,21.5655,7.1232
		c7.957,0,14.4307,6.4375,14.4307,14.3501S29.5226,35.8229,21.5655,35.8229z"/>
	<path display="inline" fill="#095FAD" d="M21.5653,11.6233c5.4758,0,9.9307,4.4186,9.9307,9.8498
		c0,5.4312-4.4549,9.8498-9.9307,9.8498s-9.9307-4.4186-9.9307-9.8498C11.6346,16.0419,16.0895,11.6233,21.5653,11.6233
		 M21.5653,2.6233c-10.4552,0-18.9307,8.4394-18.9307,18.8498c0,10.4104,8.4755,18.8498,18.9307,18.8498
		c10.4551,0,18.9307-8.4394,18.9307-18.8498C40.496,11.0627,32.0204,2.6233,21.5653,2.6233L21.5653,2.6233z"/>
</g>
</svg>
